<svg id="_98_accuract" data-name="98_accuract" xmlns="http://www.w3.org/2000/svg" viewBox="0 0 246 154"><defs><style>.cls-1{fill:#9f1a62;}</style></defs><title>Artboard 1</title><path class="cls-1" d="M111.53,58.08l-23-27.72H22.08V85.14H88.57ZM23.58,83.64V31.86H87.87l21.71,26.21L87.88,83.64Z"/><path class="cls-1" d="M64.56,36.11A21.76,21.76,0,1,0,86.32,57.87,21.79,21.79,0,0,0,64.56,36.11Zm0,42A20.26,20.26,0,1,1,84.82,57.87,20.28,20.28,0,0,1,64.56,78.13Z"/><polygon class="cls-1" points="60.45 62.85 54.89 57.48 50.72 61.8 61.16 71.86 77.96 49.63 73.17 46.02 60.45 62.85"/><path class="cls-1" d="M37.76,119.57h-7V88.65h-1.5v30.92H23.58V88.65h-1.5v30.92H15.81v6.35H9v1.5H115.43v-1.5H37.76Zm-20.45,6.35v-4.85h19v4.85Z"/><polygon class="cls-1" points="23.58 22.75 29.26 22.75 29.26 27.24 30.76 27.24 30.76 21.25 22.08 21.25 22.08 27.24 23.58 27.24 23.58 22.75"/><rect class="cls-1" x="29.26" y="35.54" width="1.5" height="44.81"/><path class="cls-1" d="M163,62.76V61.23q0-6.16-2.9-9.85a9.42,9.42,0,0,0-7.83-3.68,10.45,10.45,0,0,0-5.57,1.46A9.72,9.72,0,0,0,143,53.24a13.13,13.13,0,0,0-1.3,5.86A11.84,11.84,0,0,0,144.24,67a8.91,8.91,0,0,0,13.27.12c-.21,3.14-1.18,5.47-2.9,7s-4.19,2.28-7.41,2.33h-.78V81h.65Q155,80.9,159,76.25T163,62.76Zm-5.44-.52a6.18,6.18,0,0,1-2.22,2.61,5.48,5.48,0,0,1-3.07.94,4.51,4.51,0,0,1-3.78-1.88,8.09,8.09,0,0,1-1.41-5,8.18,8.18,0,0,1,1.4-4.9,4.4,4.4,0,0,1,3.76-1.94,4.45,4.45,0,0,1,3.84,2.2,10.19,10.19,0,0,1,1.48,5.81Z"/><path class="cls-1" d="M185.41,78.76a8.59,8.59,0,0,0,2.92-6.84A8.24,8.24,0,0,0,187,67.25,9.25,9.25,0,0,0,183,64a8.66,8.66,0,0,0,3.37-3,7.6,7.6,0,0,0,1.23-4.27,8.54,8.54,0,0,0-2.69-6.63,12.1,12.1,0,0,0-14.57,0,8.51,8.51,0,0,0-2.7,6.63A7.6,7.6,0,0,0,168.88,61a8.47,8.47,0,0,0,3.33,3,8.83,8.83,0,0,0-3.91,3.21,8.35,8.35,0,0,0-1.39,4.71,8.59,8.59,0,0,0,2.93,6.83,13.26,13.26,0,0,0,15.57,0ZM174.32,53.39a4.26,4.26,0,0,1,3.3-1.32,4.2,4.2,0,0,1,3.32,1.39,5.71,5.71,0,0,1,0,7.08,4.82,4.82,0,0,1-6.63,0,5.87,5.87,0,0,1,0-7.15Zm-1.95,18.26a5.44,5.44,0,0,1,1.42-3.93,5,5,0,0,1,3.81-1.48,5.11,5.11,0,0,1,3.83,1.49,5.44,5.44,0,0,1,1.45,3.92,5.26,5.26,0,0,1-1.39,3.89,6,6,0,0,1-7.72-.05A5.29,5.29,0,0,1,172.37,71.65Z"/><path class="cls-1" d="M198.74,62.87a6.81,6.81,0,0,0,5-1.88,6.55,6.55,0,0,0,1.9-4.83V54.54a6.75,6.75,0,0,0-1.9-5,7.59,7.59,0,0,0-10.05,0,6.59,6.59,0,0,0-1.91,4.86V56a6.53,6.53,0,0,0,2,5A7,7,0,0,0,198.74,62.87Zm-3.14-8.38a3.81,3.81,0,0,1,.84-2.58,2.84,2.84,0,0,1,2.26-1,2.91,2.91,0,0,1,2.28,1,3.65,3.65,0,0,1,.86,2.52v1.64a3.75,3.75,0,0,1-.85,2.6,2.87,2.87,0,0,1-2.25,1,2.93,2.93,0,0,1-2.28-1,3.62,3.62,0,0,1-.86-2.51Z"/><path class="cls-1" d="M209.45,68a6.42,6.42,0,0,0-1.95,4.87v1.64a6.61,6.61,0,0,0,1.92,5,6.93,6.93,0,0,0,5.06,1.87,6.75,6.75,0,0,0,5-1.89,6.57,6.57,0,0,0,1.87-4.82V73a6.62,6.62,0,0,0-1.94-5,7.59,7.59,0,0,0-10,0Zm8.11,4.85v1.68a3.88,3.88,0,0,1-.82,2.62,2.86,2.86,0,0,1-2.26.93,2.94,2.94,0,0,1-2.28-1,3.57,3.57,0,0,1-.88-2.5V72.89a3.7,3.7,0,0,1,.86-2.61,3.16,3.16,0,0,1,4.5,0A3.54,3.54,0,0,1,217.56,72.8Z"/><polygon class="cls-1" points="199.87 78.39 215.83 52.84 213.02 51.22 197.06 76.77 199.87 78.39"/><path class="cls-1" d="M145.18,103.17c0-.15,0-.3,0-.46V96.86a3.67,3.67,0,0,0-1.28-3,5.1,5.1,0,0,0-3.34-1,8.08,8.08,0,0,0-2.56.39,6.4,6.4,0,0,0-2,1.07V96.6h1.71l.23-1.28a2.75,2.75,0,0,1,1-.58,4.63,4.63,0,0,1,1.46-.21,2.65,2.65,0,0,1,1.88.62,2.18,2.18,0,0,1,.67,1.69v1.41h-2.28a6.84,6.84,0,0,0-3.83.94,3,3,0,0,0-1.4,2.67,3.41,3.41,0,0,0,1,2.61,4.6,4.6,0,0,0,4.93.38,5.34,5.34,0,0,0,1.6-1.37c0,.27,0,.53.08.79s.09.56.16.89h2.89v-1.42l-.89-.12A3.4,3.4,0,0,1,145.18,103.17ZM143,101.74a3.18,3.18,0,0,1-1.3,1.27,4,4,0,0,1-2,.53,2.25,2.25,0,0,1-1.49-.42,1.52,1.52,0,0,1-.5-1.22,1.91,1.91,0,0,1,.79-1.53,3.43,3.43,0,0,1,2.15-.62H143Z"/><path class="cls-1" d="M155.42,101.32a2.05,2.05,0,0,1-.84,1.66,3,3,0,0,1-1.94.68,2.65,2.65,0,0,1-2.49-1.24,6,6,0,0,1-.74-3.1v-.47a5.84,5.84,0,0,1,.75-3.07,2.63,2.63,0,0,1,2.48-1.25,3.79,3.79,0,0,1,1.39.23,2.8,2.8,0,0,1,1,.62l.49,1.91h1.76l-.1-2.7a5.26,5.26,0,0,0-1.93-1.32,6.76,6.76,0,0,0-2.62-.48,4.88,4.88,0,0,0-4,1.73,6.7,6.7,0,0,0-1.4,4.33v.47a6.63,6.63,0,0,0,1.4,4.34,4.87,4.87,0,0,0,4,1.73,5.08,5.08,0,0,0,3.39-1.22,3.38,3.38,0,0,0,1.39-2.79l0-.06Z"/><path class="cls-1" d="M167.05,101.32a2.05,2.05,0,0,1-.84,1.66,2.92,2.92,0,0,1-1.93.68,2.68,2.68,0,0,1-2.5-1.24,6,6,0,0,1-.74-3.1v-.47a5.84,5.84,0,0,1,.75-3.07,2.66,2.66,0,0,1,2.49-1.25,3.83,3.83,0,0,1,1.39.23,2.88,2.88,0,0,1,1,.62l.48,1.91h1.76l-.1-2.7a5.31,5.31,0,0,0-1.92-1.32,6.83,6.83,0,0,0-2.62-.48,4.87,4.87,0,0,0-4,1.73,6.65,6.65,0,0,0-1.41,4.33v.47a6.69,6.69,0,0,0,1.4,4.34,4.88,4.88,0,0,0,4.05,1.73,5.07,5.07,0,0,0,3.38-1.22,3.39,3.39,0,0,0,1.4-2.79l0-.06Z"/><path class="cls-1" d="M181.28,93h-3.84v1.43l1.63.31v7a3,3,0,0,1-1.17,1.35,3.6,3.6,0,0,1-1.94.48,2.15,2.15,0,0,1-1.79-.73,4.57,4.57,0,0,1-.57-2.68V93H170v1.43l1.39.31v5.42a5.88,5.88,0,0,0,1.11,4,3.88,3.88,0,0,0,3.09,1.27,4,4,0,0,0,2.08-.53,4.07,4.07,0,0,0,1.47-1.5l.15,1.8h3.38v-1.42l-1.39-.31Z"/><path class="cls-1" d="M190.69,92.79a3,3,0,0,0-1.74.52,4.33,4.33,0,0,0-1.27,1.46L187.47,93h-3.81v1.43l1.83.31v8.68l-1.83.31v1.42h5.87v-1.42l-1.83-.31v-7a2.66,2.66,0,0,1,.92-1.15,2.5,2.5,0,0,1,1.47-.41l1.26.06.29-2a2.24,2.24,0,0,0-.42-.08A3.23,3.23,0,0,0,190.69,92.79Z"/><path class="cls-1" d="M202.31,103.17c0-.15,0-.3,0-.46V96.86a3.7,3.7,0,0,0-1.28-3,5.1,5.1,0,0,0-3.34-1,8,8,0,0,0-2.56.39,6.4,6.4,0,0,0-2,1.07V96.6h1.7l.24-1.28a2.75,2.75,0,0,1,1-.58,4.63,4.63,0,0,1,1.46-.21,2.65,2.65,0,0,1,1.88.62,2.21,2.21,0,0,1,.67,1.69v1.41h-2.28a6.84,6.84,0,0,0-3.83.94,3,3,0,0,0-1.4,2.67,3.41,3.41,0,0,0,1,2.61,4.6,4.6,0,0,0,4.93.38,5.46,5.46,0,0,0,1.6-1.37c0,.27,0,.53.08.79s.09.56.16.89h2.89v-1.42l-.9-.12C202.32,103.47,202.31,103.32,202.31,103.17Zm-2.22-1.43a3.25,3.25,0,0,1-1.3,1.27,4,4,0,0,1-2,.53,2.28,2.28,0,0,1-1.5-.42,1.54,1.54,0,0,1-.49-1.22,1.89,1.89,0,0,1,.79-1.53,3.43,3.43,0,0,1,2.15-.62h2.36Z"/><path class="cls-1" d="M212.54,101.32a2.07,2.07,0,0,1-.83,1.66,3,3,0,0,1-1.94.68,2.65,2.65,0,0,1-2.49-1.24,5.88,5.88,0,0,1-.74-3.1v-.47a5.94,5.94,0,0,1,.74-3.07,2.66,2.66,0,0,1,2.49-1.25,3.79,3.79,0,0,1,1.39.23,2.88,2.88,0,0,1,1,.62l.49,1.91h1.76l-.1-2.7a5.26,5.26,0,0,0-1.93-1.32,6.8,6.8,0,0,0-2.62-.48,4.87,4.87,0,0,0-4,1.73,6.64,6.64,0,0,0-1.4,4.33v.47a6.68,6.68,0,0,0,1.39,4.34,4.89,4.89,0,0,0,4.05,1.73,5,5,0,0,0,3.38-1.22,3.39,3.39,0,0,0,1.4-2.79l0-.06Z"/><path class="cls-1" d="M222.59,93v1.43l1.39.22-2.53,7.54h-.07l-.4-1.55-2.1-6,1.37-.22V93h-4.91v1.43l1.11.18,4,10.3-.53,1.26a6.73,6.73,0,0,1-.76,1.41,1.36,1.36,0,0,1-1.14.61l-.59,0-.4,0-.23,1.74a6.28,6.28,0,0,0,.64.12,4.94,4.94,0,0,0,.68.06,3,3,0,0,0,2.32-.91,6.24,6.24,0,0,0,1.33-2.13L226.4,94.6l1.09-.16V93Z"/></svg>