<svg id="Layer_1" data-name="Layer 1" xmlns="http://www.w3.org/2000/svg" viewBox="0 0 246 154"><defs><style>.cls-1{fill:#9e2063;}</style></defs><title>Artboard 2</title><path class="cls-1" d="M146.08,64.67a36.08,36.08,0,0,0,5.59-7.53,13.87,13.87,0,0,0,1.71-6.35,10.25,10.25,0,0,0-3.4-8.17q-3.4-3-9.28-2.95a15.36,15.36,0,0,0-7.21,1.63,11.64,11.64,0,0,0-4.8,4.6A13.19,13.19,0,0,0,127,52.54h6.75a7.85,7.85,0,0,1,1.8-5.46,6.47,6.47,0,0,1,5.08-2A5.64,5.64,0,0,1,145,46.85a6.67,6.67,0,0,1,1.62,4.67,8.81,8.81,0,0,1-1.23,4.37,33.4,33.4,0,0,1-4.15,5.42L127.79,76v4.64H155V75.24H136.2Z"/><path class="cls-1" d="M159.4,63.78a10.26,10.26,0,0,0-1.72,5.83,10.62,10.62,0,0,0,3.62,8.44q3.63,3.14,9.65,3.13t9.6-3.12a10.62,10.62,0,0,0,3.61-8.45,10.12,10.12,0,0,0-1.71-5.77,11.56,11.56,0,0,0-4.87-4,10.53,10.53,0,0,0,4.16-3.64,9.4,9.4,0,0,0,1.53-5.29,10.53,10.53,0,0,0-3.33-8.19q-3.33-3-9-3t-9,3a10.53,10.53,0,0,0-3.33,8.19,9.46,9.46,0,0,0,1.51,5.29,10.48,10.48,0,0,0,4.12,3.64A11.13,11.13,0,0,0,159.4,63.78Zm7.44-17.08a5.88,5.88,0,0,1,8.19.08,6.32,6.32,0,0,1,1.52,4.35A6.23,6.23,0,0,1,175,55.54a5.93,5.93,0,0,1-8.19,0,6.28,6.28,0,0,1-1.51-4.41A6.27,6.27,0,0,1,166.84,46.7Zm-.65,17.72a7,7,0,0,1,9.43,0,6.62,6.62,0,0,1,1.79,4.84,6.56,6.56,0,0,1-1.7,4.8,6.54,6.54,0,0,1-11.28-4.8A6.69,6.69,0,0,1,166.19,64.42Z"/><path class="cls-1" d="M196.43,77.27a3.74,3.74,0,0,0-1-2.68,3.88,3.88,0,0,0-2.92-1.07,3.82,3.82,0,0,0-2.88,1.07,3.7,3.7,0,0,0-1,2.68,3.52,3.52,0,0,0,1.06,2.64,4.56,4.56,0,0,0,5.77,0A3.6,3.6,0,0,0,196.43,77.27Z"/><path class="cls-1" d="M215.13,75.8a6.37,6.37,0,0,1-4.49-1.57,7.1,7.1,0,0,1-2.11-4.51H202A11.38,11.38,0,0,0,206,78a13.57,13.57,0,0,0,9.2,3.15q6.19,0,9.74-3.65t3.55-9.81q0-6.24-3.2-9.93t-9-3.69a12.42,12.42,0,0,0-6.33,1.61l1.11-9.66h16.1V40.22h-21.7l-2.2,20.37,5.39,1.33a9,9,0,0,1,2.77-1.9,8.88,8.88,0,0,1,3.11-.48,6.66,6.66,0,0,1,5.27,2.15,8.44,8.44,0,0,1,1.92,5.84,9.57,9.57,0,0,1-1.74,6A5.79,5.79,0,0,1,215.13,75.8Z"/><path class="cls-1" d="M151.91,104.58a8.4,8.4,0,0,0-1.54-5.49,5.25,5.25,0,0,0-4.21-1.82,5.69,5.69,0,0,0-3.15.87,6.36,6.36,0,0,0-2.17,2.34A4.89,4.89,0,0,0,139,98.07a5.44,5.44,0,0,0-3-.8,6.63,6.63,0,0,0-3.06.67,5.67,5.67,0,0,0-2.15,1.92l-.21-2.27h-5.46v2l2.62.45V112.5l-2.62.45v2h8.4v-2l-2.62-.45V102.11a3.87,3.87,0,0,1,1.43-1.68,4.42,4.42,0,0,1,2.38-.59,3.19,3.19,0,0,1,2.63,1.13,5.76,5.76,0,0,1,.91,3.58v8l-2.62.45v2H144v-2l-2.62-.45v-8.56a5.11,5.11,0,0,1,1.17-2.94,3.33,3.33,0,0,1,2.65-1.16,3.21,3.21,0,0,1,2.62,1.07,5.76,5.76,0,0,1,.89,3.64v8l-2.62.45v2h8.42v-2l-2.62-.45Z"/><rect class="cls-1" x="158.36" y="89.91" width="3.17" height="3.23"/><polygon class="cls-1" points="161.52 97.59 155.74 97.59 155.74 99.63 158.36 100.08 158.36 112.5 155.74 112.95 155.74 114.97 164.14 114.97 164.14 112.95 161.52 112.5 161.52 97.59"/><polygon class="cls-1" points="170.82 89.91 165.03 89.91 165.03 91.95 167.65 92.4 167.65 112.5 165.03 112.95 165.03 114.97 173.44 114.97 173.44 112.95 170.82 112.5 170.82 89.91"/><polygon class="cls-1" points="180.09 89.91 174.31 89.91 174.31 91.95 176.93 92.4 176.93 112.5 174.31 112.95 174.31 114.97 182.71 114.97 182.71 112.95 180.09 112.5 180.09 89.91"/><rect class="cls-1" x="186.64" y="89.91" width="3.17" height="3.23"/><polygon class="cls-1" points="189.81 97.59 184.02 97.59 184.02 99.63 186.64 100.08 186.64 112.5 184.02 112.95 184.02 114.97 192.42 114.97 192.42 112.95 189.81 112.5 189.81 97.59"/><path class="cls-1" d="M201.52,97.27a7,7,0,0,0-5.67,2.5,9.56,9.56,0,0,0-2.09,6.35v.36a9.54,9.54,0,0,0,2.09,6.35,7.78,7.78,0,0,0,11.38,0,9.54,9.54,0,0,0,2.09-6.36v-.36a9.53,9.53,0,0,0-2.1-6.36A7.07,7.07,0,0,0,201.52,97.27Zm4.63,9.21A8.21,8.21,0,0,1,205,111a4.2,4.2,0,0,1-6.89,0,8.3,8.3,0,0,1-1.16-4.56v-.36a8.29,8.29,0,0,1,1.15-4.54,4.18,4.18,0,0,1,6.9,0,8.21,8.21,0,0,1,1.17,4.54Z"/><path class="cls-1" d="M227.38,112.5V104c0-2.29-.51-4-1.54-5.08a5.67,5.67,0,0,0-4.35-1.65,5.83,5.83,0,0,0-3,.76,6.37,6.37,0,0,0-2.17,2.15l-.23-2.59h-5.44v2l2.62.45V112.5l-2.62.45v2h8.4v-2l-2.62-.45V102.3a4.86,4.86,0,0,1,1.68-1.8,4.46,4.46,0,0,1,2.42-.66,3.65,3.65,0,0,1,2.77,1,4.75,4.75,0,0,1,.91,3.27v8.43l-2.62.45v2H230v-2Z"/><path class="cls-1" d="M64.71,27.87a48.22,48.22,0,1,0,48.22,48.22A48.28,48.28,0,0,0,64.71,27.87Zm0,94.94a46.72,46.72,0,1,1,46.72-46.72A46.78,46.78,0,0,1,64.71,122.81Z"/><path class="cls-1" d="M73.18,75c-1.23-.58-5-2.05-11.43-4.5l-.3-.11C56.8,68.63,55.7,65,56.21,62.15S59.2,56,64.42,56c2.19,0,9.35.61,9.35,8.45l0,.89,8-.18,0-.8c0-5.35-2.84-14-12.87-15.94v-4.9h-8v4.81A15.4,15.4,0,0,0,48.35,60.7C47.21,66.88,50,74.59,58.61,77.88l.3.11C67.33,81.18,69.33,82,69.8,82.26a6.84,6.84,0,0,1,4.12,7.92c-.65,2.93-3.25,6-8.6,6-9.81,0-10.75-6.61-10.81-8.64l0-1-8,.22,0,1c.15,5.49,3.53,14.39,14.76,16.12v4.77h8v-4.87A15.78,15.78,0,0,0,81.73,91.91,14.86,14.86,0,0,0,73.18,75Z"/></svg>