<svg id="_10_signs" data-name="10 signs" xmlns="http://www.w3.org/2000/svg" viewBox="0 0 246 154"><defs><style>.cls-1{fill:#9f1a62;}</style></defs><title>Artboard 1</title><polygon class="cls-1" points="35.9 65.99 32.34 62.81 27.01 68.78 36.41 77.16 55.28 56.98 49.44 51.52 35.9 65.99"/><rect class="cls-1" x="73.68" y="63.08" width="3.56" height="1.6"/><rect class="cls-1" x="67.52" y="63.08" width="3.56" height="1.6"/><rect class="cls-1" x="61.36" y="63.08" width="3.56" height="1.6"/><rect class="cls-1" x="73.68" y="70.75" width="3.56" height="1.6"/><rect class="cls-1" x="67.52" y="70.75" width="3.56" height="1.6"/><rect class="cls-1" x="61.36" y="70.75" width="3.56" height="1.6"/><path class="cls-1" d="M69.9,25.6H62.82a7.47,7.47,0,0,0,.09-1.07,7.33,7.33,0,1,0-14.66,0,7.48,7.48,0,0,0,.08,1.07H41.25v4.89H19.79v101H91.36v-101H69.9ZM55.58,18.8a5.73,5.73,0,1,1-5.74,5.73A5.74,5.74,0,0,1,55.58,18.8ZM42.85,27.2h5.91a7.31,7.31,0,0,0,13.63,0H68.3v9.13H42.85V27.2ZM89.76,129.85H21.39V32.09H41.25v5.84H69.9V32.09H89.76Z"/><polygon class="cls-1" points="35.9 101.17 32.34 98 27.01 103.97 36.41 112.34 55.28 92.17 49.44 86.7 35.9 101.17"/><rect class="cls-1" x="73.68" y="98.26" width="3.56" height="1.6"/><rect class="cls-1" x="67.52" y="98.26" width="3.56" height="1.6"/><rect class="cls-1" x="61.36" y="98.26" width="3.56" height="1.6"/><rect class="cls-1" x="73.68" y="105.94" width="3.56" height="1.6"/><rect class="cls-1" x="67.52" y="105.94" width="3.56" height="1.6"/><rect class="cls-1" x="61.36" y="105.94" width="3.56" height="1.6"/><path class="cls-1" d="M116.42,43.89h-3.57V38.83H98v39h1.78v36.46h1.78v5.28h3v2.7h1.6v-2.7h3.13v-5.28h1.78V77.79h1.78V45.49h2V69.9h2.59V68.3h-1Zm-8.73,74h-4.52v-3.16h4.52Zm1.78-5.28h-8.08V77.79h8.08Zm1.78-36.46h-.18V76H99.79v.15h-.18V40.43h11.64Z"/><polygon class="cls-1" points="158.52 51.49 158.52 56.27 166.88 53.42 166.88 80.83 172.56 80.83 172.56 46.59 171.83 46.59 158.52 51.49"/><path class="cls-1" d="M202.82,66.47V60.56q-.07-7.14-2.83-10.73c-1.83-2.39-4.62-3.59-8.35-3.59s-6.57,1.23-8.4,3.68-2.76,6.13-2.76,11v5.91q.08,7.14,2.87,10.79t8.34,3.64q5.63,0,8.37-3.74T202.82,66.47Zm-5.7,1.33c0,3.08-.51,5.34-1.38,6.79a4.43,4.43,0,0,1-4.05,2.17,4.48,4.48,0,0,1-4.2-2.35q-1.34-2.34-1.34-7.12V59.55c0-3,.51-5.2,1.39-6.62a5,5,0,0,1,8.27.12c.88,1.49,1.31,3.84,1.31,7Z"/><path class="cls-1" d="M163.79,99.5a9,9,0,0,0-3.43-1.34,5.09,5.09,0,0,1-2.05-.74,1.38,1.38,0,0,1-.51-1.13,1.61,1.61,0,0,1,.58-1.25,2.56,2.56,0,0,1,1.75-.51,3.73,3.73,0,0,1,1.38.23,2.86,2.86,0,0,1,1,.61l.36,1.46h1.66l-.11-2.69a5.35,5.35,0,0,0-1.83-1,8.3,8.3,0,0,0-2.48-.35,5,5,0,0,0-3.29,1,3.18,3.18,0,0,0-1.26,2.53,2.66,2.66,0,0,0,1.12,2.24A8.88,8.88,0,0,0,160,99.91a5.4,5.4,0,0,1,2.1.82,1.53,1.53,0,0,1,.56,1.2,1.47,1.47,0,0,1-.67,1.26,3.2,3.2,0,0,1-1.85.47,6,6,0,0,1-1.34-.15,2.42,2.42,0,0,1-1-.51l-.41-1.63h-1.66v2.78a6.55,6.55,0,0,0,2,.92,8.67,8.67,0,0,0,2.48.32,5.45,5.45,0,0,0,3.42-1,3.12,3.12,0,0,0,1.31-2.61A2.72,2.72,0,0,0,163.79,99.5Z"/><rect class="cls-1" x="168.05" y="87.64" width="2.21" height="2.26"/><polygon class="cls-1" points="170.26 93.01 166.22 93.01 166.22 94.44 168.05 94.75 168.05 103.43 166.22 103.74 166.22 105.16 172.09 105.16 172.09 103.74 170.26 103.43 170.26 93.01"/><path class="cls-1" d="M181.3,94.54a4,4,0,0,0-1.45-1.31,4.44,4.44,0,0,0-2-.44,4.1,4.1,0,0,0-3.54,1.79A8,8,0,0,0,173,99.31v.23a6.65,6.65,0,0,0,1.28,4.24,4.27,4.27,0,0,0,3.52,1.61,4.46,4.46,0,0,0,1.91-.39,3.94,3.94,0,0,0,1.42-1.16V105a3.64,3.64,0,0,1-.69,2.37,2.67,2.67,0,0,1-2.17.83,6.77,6.77,0,0,1-1.64-.21,7.45,7.45,0,0,1-1.46-.54l-.57,1.71a7.1,7.1,0,0,0,1.79.66,8.37,8.37,0,0,0,1.9.24,5,5,0,0,0,3.74-1.35,5.12,5.12,0,0,0,1.31-3.71V93H181.5Zm-.15,7.32a3.41,3.41,0,0,1-1.11,1.28,3,3,0,0,1-1.67.46,2.67,2.67,0,0,1-2.36-1.12,5,5,0,0,1-.78-2.94v-.23a6.61,6.61,0,0,1,.79-3.4,2.56,2.56,0,0,1,2.37-1.33A2.88,2.88,0,0,1,180,95a3.31,3.31,0,0,1,1.11,1.23Z"/><path class="cls-1" d="M196.62,97.49a5,5,0,0,0-1.07-3.55,4,4,0,0,0-3.05-1.15,4,4,0,0,0-2.08.53,4.36,4.36,0,0,0-1.52,1.5L188.74,93h-3.8v1.43l1.83.31v8.68l-1.83.31v1.42h5.87v-1.42l-1.83-.31V96.3A3.38,3.38,0,0,1,190.15,95a3.19,3.19,0,0,1,1.69-.46,2.58,2.58,0,0,1,1.94.67,3.31,3.31,0,0,1,.63,2.28v5.9l-1.83.31v1.42h5.87v-1.42l-1.83-.31Z"/><path class="cls-1" d="M207.83,99.5a9,9,0,0,0-3.42-1.34,5.15,5.15,0,0,1-2.06-.74,1.4,1.4,0,0,1-.5-1.13,1.63,1.63,0,0,1,.57-1.25,2.58,2.58,0,0,1,1.75-.51,3.79,3.79,0,0,1,1.39.23,2.86,2.86,0,0,1,1,.61l.35,1.46h1.67l-.12-2.69a5.17,5.17,0,0,0-1.83-1,8.25,8.25,0,0,0-2.48-.35,5,5,0,0,0-3.28,1,3.18,3.18,0,0,0-1.26,2.53,2.63,2.63,0,0,0,1.12,2.24,8.89,8.89,0,0,0,3.33,1.31,5.39,5.39,0,0,1,2.11.82,1.52,1.52,0,0,1,.55,1.2,1.49,1.49,0,0,1-.66,1.26,3.23,3.23,0,0,1-1.85.47,6,6,0,0,1-1.34-.15,2.36,2.36,0,0,1-1-.51l-.42-1.63h-1.66v2.78a6.61,6.61,0,0,0,2,.92,8.62,8.62,0,0,0,2.48.32,5.45,5.45,0,0,0,3.42-1,3.12,3.12,0,0,0,1.31-2.61A2.72,2.72,0,0,0,207.83,99.5Z"/></svg>