<svg id="_25_million" data-name="25 million" xmlns="http://www.w3.org/2000/svg" viewBox="0 0 246 154"><defs><style>.cls-1,.cls-2{fill:none;stroke:#9e2063;stroke-miterlimit:10;}.cls-1{stroke-width:1.5px;}.cls-2{stroke-width:7px;}.cls-3{font-size:33px;font-family:Roboto-Bold, Roboto;font-weight:700;letter-spacing:-0.01em;}.cls-3,.cls-4{fill:#9e1f63;}.cls-4{font-size:20px;font-family:RobotoSlab-Regular, Roboto Slab;letter-spacing:-0.01em;}</style></defs><title>Artboard 1</title><path class="cls-1" d="M87,77A28.83,28.83,0,1,1,58.17,47.72,29.05,29.05,0,0,1,87,77Z"/><polyline class="cls-1" points="65.97 121.75 58.17 113.83 50.37 121.75"/><line class="cls-1" x1="58.17" y1="115.4" x2="58.17" y2="128.8"/><polyline class="cls-1" points="102.92 69.2 95 77 102.92 84.8"/><line class="cls-1" x1="96.57" y1="77" x2="109.97" y2="77"/><polyline class="cls-1" points="50.37 32.25 58.17 40.17 65.97 32.25"/><line class="cls-1" x1="58.17" y1="38.6" x2="58.17" y2="25.2"/><polyline class="cls-1" points="13.42 84.8 21.33 77 13.42 69.2"/><line class="cls-1" x1="19.77" y1="77" x2="6.37" y2="77"/><path class="cls-2" d="M66,70.48s0-.19,0-.52c-.1-1.73-.89-7.13-7.7-7.13-7.85,0-9.92,10-2.53,12.8.59.22,5.56,2.1,6.61,2.59,6.4,3,4.41,12.47-3.56,12.47-7.42,0-8.49-5.43-8.54-7.24l0-.57"/><line class="cls-2" x1="58.52" y1="55" x2="58.52" y2="60.87"/><line class="cls-2" x1="58.73" y1="98.51" x2="58.73" y2="92.65"/><polyline class="cls-1" points="95.33 103.13 84.21 103.05 84.3 114.16"/><line class="cls-1" x1="85.32" y1="104.15" x2="94.8" y2="113.63"/><polyline class="cls-1" points="84.3 39.84 84.21 50.96 95.33 50.87"/><line class="cls-1" x1="85.32" y1="49.85" x2="94.8" y2="40.37"/><polyline class="cls-1" points="21.01 50.87 32.12 50.95 32.04 39.84"/><line class="cls-1" x1="31.01" y1="49.85" x2="21.54" y2="40.37"/><polyline class="cls-1" points="32.04 114.16 32.12 103.04 21.01 103.13"/><line class="cls-1" x1="31.01" y1="104.15" x2="21.54" y2="113.63"/><text class="cls-3" transform="translate(145 74.61)">$25</text><text class="cls-4" transform="translate(125.67 97.61)">million net</text></svg>