<svg id="Webinar_2" data-name="Webinar 2" xmlns="http://www.w3.org/2000/svg" viewBox="0 0 246 154"><defs><style>.cls-1{fill:#9e1f63;}</style></defs><title>Artboard 1</title><path class="cls-1" d="M60.83,75.34a19,19,0,1,0-19-19A19,19,0,0,0,60.83,75.34ZM54.24,45a.19.19,0,0,1,.29-.16L72.85,56.18a.19.19,0,0,1,0,.33L54.54,67.84a.19.19,0,0,1-.29-.16Z"/><path class="cls-1" d="M9.33,94.82H49.67v14.62H32.39v1.5h56.3v-1.5H71.33V94.82h40.16V28.25H9.33Zm60.5,0v14.6H51.17V94.82Zm-59-1.5V83.56H110v9.76ZM110,29.75V82.06H10.83V29.75Z"/><path class="cls-1" d="M135.46,41a6,6,0,0,0,1.69-4.43V34.63A5.85,5.85,0,0,0,131,28.48h-6v1.24l1.59.27V41.2l-1.59.27V42.7h6A6,6,0,0,0,135.46,41Zm-6.92-11H131a3.92,3.92,0,0,1,3.11,1.3,4.84,4.84,0,0,1,1.14,3.31v2a4.87,4.87,0,0,1-1.14,3.33A3.92,3.92,0,0,1,131,41.2h-2.44Z"/><path class="cls-1" d="M143.56,36.7a5.93,5.93,0,0,0-3.33.82A2.63,2.63,0,0,0,139,39.83a3,3,0,0,0,.86,2.27,4,4,0,0,0,4.29.33,4.66,4.66,0,0,0,1.39-1.19c0,.23,0,.46.07.68s.08.48.14.77h2.52V41.47l-.78-.11c0-.13,0-.26,0-.39s0-.26,0-.4V35.49a3.21,3.21,0,0,0-1.11-2.63,4.43,4.43,0,0,0-2.91-.92,6.92,6.92,0,0,0-2.23.35,5.7,5.7,0,0,0-1.75.92v2.05H141l.21-1.11a2.39,2.39,0,0,1,.89-.51,4,4,0,0,1,1.27-.19A2.31,2.31,0,0,1,145,34a1.9,1.9,0,0,1,.59,1.47V36.7Zm2,3a2.85,2.85,0,0,1-1.13,1.1,3.42,3.42,0,0,1-1.75.46,2,2,0,0,1-1.3-.37,1.32,1.32,0,0,1-.43-1.06,1.64,1.64,0,0,1,.69-1.33,2.92,2.92,0,0,1,1.87-.55h2.05Z"/><path class="cls-1" d="M151.11,40a3.08,3.08,0,0,0,.69,2.22,2.49,2.49,0,0,0,1.87.71,5.06,5.06,0,0,0,1.05-.11,2.46,2.46,0,0,0,.8-.29l-.26-1.32-.53.09a4.21,4.21,0,0,1-.57,0,1.11,1.11,0,0,1-.82-.3,1.44,1.44,0,0,1-.31-1V33.56h2V32.14h-2V29.59h-1.92v2.55h-1.67v1.43h1.67Z"/><path class="cls-1" d="M161.5,36.7a5.93,5.93,0,0,0-3.33.82,2.63,2.63,0,0,0-1.22,2.32,3,3,0,0,0,.86,2.27,4,4,0,0,0,4.29.33,4.66,4.66,0,0,0,1.39-1.19c0,.23,0,.46.07.68s.08.48.14.77h2.52V41.47l-.78-.11c0-.13,0-.26,0-.39s0-.26,0-.4V35.49a3.21,3.21,0,0,0-1.11-2.63,4.43,4.43,0,0,0-2.91-.92,6.92,6.92,0,0,0-2.23.35,5.7,5.7,0,0,0-1.75.92v2.05h1.48l.21-1.11a2.39,2.39,0,0,1,.89-.51,4,4,0,0,1,1.27-.19,2.31,2.31,0,0,1,1.63.54,1.9,1.9,0,0,1,.59,1.47V36.7Zm2,3a2.85,2.85,0,0,1-1.13,1.1,3.42,3.42,0,0,1-1.75.46,2,2,0,0,1-1.3-.37,1.32,1.32,0,0,1-.43-1.06,1.64,1.64,0,0,1,.69-1.33,2.92,2.92,0,0,1,1.87-.55h2.05Z"/><polygon class="cls-1" points="130.13 65.47 128.53 65.2 128.53 54 130.13 53.73 130.13 52.48 125.02 52.48 125.02 53.73 126.61 54 126.61 65.2 125.02 65.47 125.02 66.7 130.13 66.7 130.13 65.47"/><path class="cls-1" d="M134.63,57.71l-.14-1.57h-3.31v1.24l1.59.27V65.2l-1.59.27V66.7h5.11V65.47l-1.59-.27V59a2.92,2.92,0,0,1,1-1.09,2.71,2.71,0,0,1,1.47-.4,2.21,2.21,0,0,1,1.68.59,2.86,2.86,0,0,1,.55,2V65.2l-1.59.27V66.7h5.11V65.47l-1.59-.27V60a4.39,4.39,0,0,0-.94-3.09,3.45,3.45,0,0,0-2.65-1,3.53,3.53,0,0,0-1.81.46A3.85,3.85,0,0,0,134.63,57.71Z"/><path class="cls-1" d="M149.19,65.28a4.21,4.21,0,0,1-.57,0,1.11,1.11,0,0,1-.82-.3,1.44,1.44,0,0,1-.31-1V57.56h2V56.14h-2V53.59h-1.92v2.55h-1.67v1.43h1.67V64a3.08,3.08,0,0,0,.69,2.22,2.49,2.49,0,0,0,1.87.71,5,5,0,0,0,1.05-.11,2.47,2.47,0,0,0,.8-.29l-.26-1.32Z"/><path class="cls-1" d="M151.27,61.2v.43a5.53,5.53,0,0,0,1.3,3.81,4.46,4.46,0,0,0,3.51,1.47,6,6,0,0,0,2.24-.38,4.63,4.63,0,0,0,1.5-.92l-.75-1.25a4,4,0,0,1-1.27.77,4.84,4.84,0,0,1-1.71.28,2.46,2.46,0,0,1-2.08-1,4.17,4.17,0,0,1-.77-2.5l0,0h6.86v-1.2a5.12,5.12,0,0,0-1.1-3.44,4,4,0,0,0-3.23-1.29,4.14,4.14,0,0,0-3.18,1.5A5.42,5.42,0,0,0,151.27,61.2Zm2.87-2.92a2.08,2.08,0,0,1,1.65-.82,2.16,2.16,0,0,1,1.8.76,3,3,0,0,1,.61,1.89v.25h-4.87l0,0A3.86,3.86,0,0,1,154.15,58.27Z"/><path class="cls-1" d="M162.94,57.5a6.94,6.94,0,0,0-1.11,4.11v.21a5.76,5.76,0,0,0,1.11,3.68A3.69,3.69,0,0,0,166,66.91a3.84,3.84,0,0,0,1.66-.34,3.41,3.41,0,0,0,1.24-1v1a3.14,3.14,0,0,1-.6,2.06,2.32,2.32,0,0,1-1.89.72,6.24,6.24,0,0,1-2.7-.65l-.5,1.49a6.39,6.39,0,0,0,1.56.57,7.23,7.23,0,0,0,1.65.21,4.33,4.33,0,0,0,3.25-1.18,4.44,4.44,0,0,0,1.14-3.23V56.14H169.2L169,57.47a3.44,3.44,0,0,0-1.26-1.13,3.74,3.74,0,0,0-1.75-.39A3.57,3.57,0,0,0,162.94,57.5Zm5,.4a3,3,0,0,1,1,1.07v4.86a3,3,0,0,1-1,1.12,2.54,2.54,0,0,1-1.46.4,2.33,2.33,0,0,1-2.05-1,4.39,4.39,0,0,1-.67-2.56v-.21a5.74,5.74,0,0,1,.68-3,2.24,2.24,0,0,1,2.06-1.15A2.54,2.54,0,0,1,167.93,57.9Z"/><path class="cls-1" d="M178,65.47l-1.59-.27V59.14a2.3,2.3,0,0,1,.8-1,2.2,2.2,0,0,1,1.28-.36l1.09.06.25-1.79-.37-.07a3.33,3.33,0,0,0-.46,0,2.58,2.58,0,0,0-1.51.46,3.69,3.69,0,0,0-1.11,1.27l-.19-1.53h-3.31v1.24l1.59.27V65.2l-1.59.27V66.7H178Z"/><rect class="cls-1" x="182.6" y="51.47" width="1.92" height="1.96"/><polygon class="cls-1" points="186.11 65.47 184.52 65.2 184.52 56.14 181.01 56.14 181.01 57.38 182.6 57.65 182.6 65.2 181.01 65.47 181.01 66.7 186.11 66.7 186.11 65.47"/><path class="cls-1" d="M192.43,65.28a4.21,4.21,0,0,1-.57,0A1.11,1.11,0,0,1,191,65a1.44,1.44,0,0,1-.31-1V57.56h2V56.14h-2V53.59h-1.92v2.55h-1.67v1.43h1.67V64a3.08,3.08,0,0,0,.69,2.22,2.49,2.49,0,0,0,1.87.71,5,5,0,0,0,1.05-.11,2.47,2.47,0,0,0,.8-.29L193,65.19Z"/><path class="cls-1" d="M198.43,66.5,198,67.59a6,6,0,0,1-.66,1.23,1.17,1.17,0,0,1-1,.53l-.51,0-.35,0-.2,1.51.56.1a4.13,4.13,0,0,0,.59.05,2.66,2.66,0,0,0,2-.79,5.44,5.44,0,0,0,1.15-1.86l4-10.8.95-.15V56.14h-4.26v1.24l1.2.2-2.2,6.56h-.06l-.35-1.35-1.83-5.21,1.19-.2V56.14H194v1.24l1,.16Z"/><path class="cls-1" d="M214.9,66.91a6.32,6.32,0,0,0,2-.31,5.88,5.88,0,0,0,1.73-.89l.83,1h2.24l0,0-1.81-2.19a6.26,6.26,0,0,0,1.1-2,7.17,7.17,0,0,0,.38-2.37h-1.72a5.82,5.82,0,0,1-.22,1.63,5.49,5.49,0,0,1-.62,1.41l-3.32-4,1.06-.78A6.91,6.91,0,0,0,218.05,57a2.72,2.72,0,0,0,.51-1.66,2.8,2.8,0,0,0-1-2.14,3.56,3.56,0,0,0-2.51-.89,3.68,3.68,0,0,0-2.62.89,3.32,3.32,0,0,0-1,2.54,3.5,3.5,0,0,0,.37,1.56A10,10,0,0,0,213,59,8.39,8.39,0,0,0,211,60.79a3.32,3.32,0,0,0-.69,2.08,3.72,3.72,0,0,0,1.25,2.91A4.87,4.87,0,0,0,214.9,66.91Zm-1-12.56a1.46,1.46,0,0,1,1.22-.55,1.7,1.7,0,0,1,1.24.46,1.43,1.43,0,0,1,.47,1.05,2.27,2.27,0,0,1-.2,1,2,2,0,0,1-.76.81l-1.35.93a6.39,6.39,0,0,1-.79-1.23,2.54,2.54,0,0,1-.26-1.08A2.14,2.14,0,0,1,213.87,54.35Zm-1.38,7.44a3.73,3.73,0,0,1,1.18-1.27l.39-.28,3.53,4.25a4.81,4.81,0,0,1-1.29.69,4.18,4.18,0,0,1-1.39.24,2.68,2.68,0,0,1-2-.71,2.5,2.5,0,0,1-.69-1.82A2.58,2.58,0,0,1,212.49,61.78Z"/><polygon class="cls-1" points="136.74 94.08 131 77.89 124.99 77.89 124.99 100.22 129.59 100.22 129.59 94.11 129.13 83.6 135.14 100.22 138.3 100.22 144.32 83.58 143.87 94.11 143.87 100.22 148.48 100.22 148.48 77.89 142.44 77.89 136.74 94.08"/><path class="cls-1" d="M158.92,77.89l-8.31,22.32h4.89l1.53-4.6h8.06l1.55,4.6h4.89l-8.36-22.32Zm-.64,14,2.77-8.36,2.81,8.36Z"/><path class="cls-1" d="M178.78,83a3.91,3.91,0,0,1,3.44-1.65,4.45,4.45,0,0,1,3.15,1,4.66,4.66,0,0,1,1.2,3.13h4.6a8.49,8.49,0,0,0-2.73-5.81,10.13,10.13,0,0,0-11.12-.76,8.51,8.51,0,0,0-3.24,3.76,13.38,13.38,0,0,0-1.13,5.67V89.7q0,5,2.46,7.93a8.4,8.4,0,0,0,6.75,2.89,9.34,9.34,0,0,0,6.32-2.07,7.9,7.9,0,0,0,2.66-5.67h-4.6a4.4,4.4,0,0,1-1.2,3,4.54,4.54,0,0,1-3.18,1,3.83,3.83,0,0,1-3.46-1.67,9.88,9.88,0,0,1-1.1-5.29V88.12A9.23,9.23,0,0,1,178.78,83Z"/><path class="cls-1" d="M209.72,88.45a6.87,6.87,0,0,0,1-3.81,6.09,6.09,0,0,0-2.15-5,9.38,9.38,0,0,0-6.1-1.76h-8.29v22.32h4.6V92h3.66l4.19,8.17h4.94V100l-4.83-9.12A6.74,6.74,0,0,0,209.72,88.45Zm-4.56-1a3.8,3.8,0,0,1-2.68.88h-3.71v-6.7h3.69a3.72,3.72,0,0,1,2.75.9,3.37,3.37,0,0,1,.9,2.48A3.15,3.15,0,0,1,205.16,87.44Z"/><path class="cls-1" d="M224.89,77.89h-4.26l-8.31,22.32h4.89l1.53-4.6h8.06l1.55,4.6h4.89Zm-4.91,14,2.77-8.36,2.81,8.36Z"/></svg>