<svg id="cdi" xmlns="http://www.w3.org/2000/svg" viewBox="0 0 246 154"><defs><style>.cls-1{fill:#9e1f63;}</style></defs><title>Artboard 1</title><rect class="cls-1" x="40.62" y="59.32" width="23.2" height="3"/><rect class="cls-1" x="40.62" y="70.64" width="15.75" height="3"/><rect class="cls-1" x="40.62" y="81.95" width="12.32" height="3"/><rect class="cls-1" x="40.62" y="93.27" width="12.32" height="3"/><path class="cls-1" d="M149.87,66.2A7.91,7.91,0,0,1,156.66,63a8.1,8.1,0,0,1,5.77,1.86q2,1.86,2.45,6.06h6.75Q171,64.5,167,61t-10.39-3.49a15.65,15.65,0,0,0-8.45,2.28,14.72,14.72,0,0,0-5.61,6.48,22.82,22.82,0,0,0-2,9.72v3.64a22.65,22.65,0,0,0,2,9.45,14.5,14.5,0,0,0,5.47,6.28,15.2,15.2,0,0,0,8.2,2.21q6.67,0,10.68-3.49a14.08,14.08,0,0,0,4.6-9.73h-6.75q-.54,4.18-2.54,6t-6,1.79a7.5,7.5,0,0,1-6.62-3.32q-2.26-3.32-2.26-9.64V75.67Q147.5,69.43,149.87,66.2Z"/><path class="cls-1" d="M198.35,60.35a18.05,18.05,0,0,0-9.17-2.3H177.67V97h11.22a18.88,18.88,0,0,0,9.36-2.28,15.51,15.51,0,0,0,6.29-6.48,20.65,20.65,0,0,0,2.21-9.74v-2a20.74,20.74,0,0,0-2.19-9.69A15.7,15.7,0,0,0,198.35,60.35Zm1.59,18.33q-.05,6.23-2.9,9.55t-8.18,3.33h-4.42V63.51h4.74q5.25,0,8,3.34t2.76,9.67Z"/><rect class="cls-1" x="213.89" y="58.05" width="6.75" height="38.97"/><path class="cls-1" d="M100.21,124.5H34.42V26.37H81.79V44h18.42v7.38h3V44h.08l-.08-.08v-.05h-.05L81.81,23.44v-.07H31.42V127.5h71.79V115.67h-3Zm-15.42-94L95.82,41h-11Z"/><polygon class="cls-1" points="89.69 83.54 82.5 75.49 75.04 82.15 90.39 99.34 122.23 56.57 114.21 50.6 89.69 83.54"/><path class="cls-1" d="M112.6,77a23.2,23.2,0,1,1-12.71-15l4.39-5a29.7,29.7,0,1,0,13.2,14.41Z"/></svg>