<svg id="Webinar_1" data-name="Webinar 1" xmlns="http://www.w3.org/2000/svg" viewBox="0 0 246 154"><defs><style>.cls-1{fill:#9e1f63;}</style></defs><title>Artboard 1</title><path class="cls-1" d="M60.83,75.34a19,19,0,1,0-19-19A19,19,0,0,0,60.83,75.34ZM54.24,45a.19.19,0,0,1,.29-.16L72.85,56.18a.19.19,0,0,1,0,.33L54.54,67.84a.19.19,0,0,1-.29-.16Z"/><path class="cls-1" d="M9.33,94.82H49.67v14.62H32.39v1.5h56.3v-1.5H71.33V94.82h40.16V28.25H9.33Zm60.5,0v14.6H51.17V94.82Zm-59-1.5V83.56H110v9.76ZM110,29.75V82.06H10.83V29.75Z"/><path class="cls-1" d="M131.19,42.9A6.1,6.1,0,0,0,134,42.3a5.2,5.2,0,0,0,1.8-1.38V38.45h-1.33l-.35,2a3.28,3.28,0,0,1-1.19.72,4.77,4.77,0,0,1-1.72.3A3.68,3.68,0,0,1,128,39.86a6.64,6.64,0,0,1-1.14-4v-.22a6.5,6.5,0,0,1,1.16-4,3.89,3.89,0,0,1,3.33-1.57,4,4,0,0,1,1.59.29,3.63,3.63,0,0,1,1.13.73l.35,2h1.33V30.61a5.36,5.36,0,0,0-1.8-1.38,6,6,0,0,0-2.78-.61,5.6,5.6,0,0,0-4.47,2,7.5,7.5,0,0,0-1.71,5v.2a7.41,7.41,0,0,0,1.74,5A5.61,5.61,0,0,0,131.19,42.9Z"/><path class="cls-1" d="M142.31,41.5l-1.55-.27V35.09a3.07,3.07,0,0,1,1-1,2.76,2.76,0,0,1,1.41-.37,2.09,2.09,0,0,1,1.63.61,2.76,2.76,0,0,1,.55,1.89v5l-1.55.27v1.2h5V41.5l-1.55-.27v-5a4.38,4.38,0,0,0-.92-3.05,3.33,3.33,0,0,0-2.57-1,3.61,3.61,0,0,0-1.72.41,3.77,3.77,0,0,0-1.31,1.15V27.83h-3.43V29l1.55.27V41.24l-1.55.27v1.2h5Z"/><path class="cls-1" d="M154.63,42.9A4.17,4.17,0,0,0,158,41.44a5.65,5.65,0,0,0,1.24-3.78v-.21A5.66,5.66,0,0,0,158,33.67a4.58,4.58,0,0,0-6.75,0A5.68,5.68,0,0,0,150,37.45v.21a5.66,5.66,0,0,0,1.24,3.77A4.19,4.19,0,0,0,154.63,42.9Zm-2.75-5.45a4.93,4.93,0,0,1,.69-2.7,2.26,2.26,0,0,1,2-1.08,2.29,2.29,0,0,1,2,1.08,4.88,4.88,0,0,1,.7,2.7v.21a4.87,4.87,0,0,1-.7,2.71,2.49,2.49,0,0,1-4.08,0,4.89,4.89,0,0,1-.69-2.71Z"/><path class="cls-1" d="M165.38,42.9a4.17,4.17,0,0,0,3.37-1.47A5.65,5.65,0,0,0,170,37.66v-.21a5.66,5.66,0,0,0-1.24-3.78,4.58,4.58,0,0,0-6.75,0,5.68,5.68,0,0,0-1.24,3.77v.21A5.66,5.66,0,0,0,162,41.43,4.19,4.19,0,0,0,165.38,42.9Zm-2.75-5.45a4.93,4.93,0,0,1,.69-2.7,2.26,2.26,0,0,1,2-1.08,2.29,2.29,0,0,1,2,1.08,4.88,4.88,0,0,1,.7,2.7v.21a4.87,4.87,0,0,1-.7,2.71,2.49,2.49,0,0,1-4.08,0,4.89,4.89,0,0,1-.69-2.71Z"/><path class="cls-1" d="M172.74,37.14a7.51,7.51,0,0,0,2.83,1.12,4.43,4.43,0,0,1,1.79.7,1.28,1.28,0,0,1,.47,1,1.25,1.25,0,0,1-.57,1.06,2.66,2.66,0,0,1-1.57.41,4.89,4.89,0,0,1-1.14-.13,2,2,0,0,1-.88-.43l-.35-1.38h-1.41v2.35a5.6,5.6,0,0,0,1.67.79,7.55,7.55,0,0,0,2.11.27,4.66,4.66,0,0,0,2.9-.85,2.66,2.66,0,0,0,1.11-2.22,2.3,2.3,0,0,0-1-1.93,7.52,7.52,0,0,0-2.91-1.14,4.45,4.45,0,0,1-1.75-.63,1.18,1.18,0,0,1-.43-1,1.38,1.38,0,0,1,.49-1.06,2.17,2.17,0,0,1,1.49-.44,3.33,3.33,0,0,1,1.18.2,2.54,2.54,0,0,1,.86.52l.31,1.24h1.41l-.09-2.28a4.39,4.39,0,0,0-1.55-.85,6.76,6.76,0,0,0-2.11-.31,4.23,4.23,0,0,0-2.79.89,2.69,2.69,0,0,0-1.07,2.15A2.25,2.25,0,0,0,172.74,37.14Z"/><rect class="cls-1" x="182.82" y="27.83" width="1.88" height="1.92"/><polygon class="cls-1" points="186.25 41.5 184.7 41.23 184.7 32.39 181.27 32.39 181.27 33.6 182.82 33.87 182.82 41.23 181.27 41.5 181.27 42.7 186.25 42.7 186.25 41.5"/><path class="cls-1" d="M192.2,41.5l-1.55-.27V35.18a2.85,2.85,0,0,1,1-1.07,2.65,2.65,0,0,1,1.43-.39,2.16,2.16,0,0,1,1.64.57,2.79,2.79,0,0,1,.54,1.94v5l-1.55.27v1.2h5V41.5l-1.55-.27v-5a4.3,4.3,0,0,0-.92-3,3.37,3.37,0,0,0-2.58-1,3.45,3.45,0,0,0-1.77.45,3.74,3.74,0,0,0-1.29,1.27l-.13-1.54h-3.23V33.6l1.55.27v7.37l-1.55.27v1.2h5Z"/><path class="cls-1" d="M203.94,42.9a3.76,3.76,0,0,0,1.62-.33,3.33,3.33,0,0,0,1.21-1v1a3.06,3.06,0,0,1-.59,2,2.26,2.26,0,0,1-1.84.71,6.09,6.09,0,0,1-2.63-.64l-.49,1.46a6.29,6.29,0,0,0,1.53.56,7,7,0,0,0,1.61.21,4.22,4.22,0,0,0,3.17-1.15,4.33,4.33,0,0,0,1.12-3.15V32.39h-1.58l-.17,1.3a3.35,3.35,0,0,0-1.23-1.11A3.65,3.65,0,0,0,204,32.2a3.48,3.48,0,0,0-3,1.53,6.77,6.77,0,0,0-1.09,4v.2A5.62,5.62,0,0,0,201,41.53,3.6,3.6,0,0,0,203.94,42.9Zm-2.19-5.17a5.61,5.61,0,0,1,.67-2.89,2.19,2.19,0,0,1,2-1.12,2.48,2.48,0,0,1,1.4.39,2.92,2.92,0,0,1,.94,1V39.9a2.93,2.93,0,0,1-.94,1.09,2.48,2.48,0,0,1-1.42.39,2.27,2.27,0,0,1-2-.94,4.28,4.28,0,0,1-.66-2.5Z"/><path class="cls-1" d="M220,36.84a5.78,5.78,0,0,0-3.26.8,2.57,2.57,0,0,0-1.19,2.26,2.89,2.89,0,0,0,.84,2.22,3.89,3.89,0,0,0,4.19.32,4.54,4.54,0,0,0,1.36-1.16q0,.33.07.67c0,.22.08.47.13.75h2.46V41.5l-.76-.1q0-.19,0-.38c0-.13,0-.26,0-.39v-5a3.14,3.14,0,0,0-1.09-2.56,4.32,4.32,0,0,0-2.84-.9,6.75,6.75,0,0,0-2.17.34,5.57,5.57,0,0,0-1.71.9v2h1.45l.2-1.09a2.34,2.34,0,0,1,.87-.5,3.91,3.91,0,0,1,1.24-.18,2.26,2.26,0,0,1,1.59.53,1.86,1.86,0,0,1,.57,1.44v1.2Zm1.94,3a2.79,2.79,0,0,1-1.11,1.08,3.34,3.34,0,0,1-1.71.45,1.92,1.92,0,0,1-1.27-.36,1.28,1.28,0,0,1-.42-1,1.6,1.6,0,0,1,.67-1.3,2.86,2.86,0,0,1,1.83-.53h2Z"/><polygon class="cls-1" points="129.59 68.78 129.13 58.26 135.14 74.88 138.3 74.88 144.32 58.25 143.87 68.78 143.87 74.88 148.48 74.88 148.48 52.56 142.44 52.56 136.74 68.75 131 52.56 124.99 52.56 124.99 74.88 129.59 74.88 129.59 68.78"/><path class="cls-1" d="M158.92,52.56l-8.31,22.32h4.89l1.53-4.6h8.06l1.55,4.6h4.89l-8.36-22.32Zm-.64,14,2.77-8.36,2.81,8.36Z"/><path class="cls-1" d="M188.48,73.12a7.9,7.9,0,0,0,2.66-5.67h-4.6a4.39,4.39,0,0,1-1.2,3,4.54,4.54,0,0,1-3.18,1,3.83,3.83,0,0,1-3.46-1.67,9.88,9.88,0,0,1-1.1-5.29V62.79a9.23,9.23,0,0,1,1.17-5.11A3.91,3.91,0,0,1,182.22,56a4.46,4.46,0,0,1,3.15,1,4.66,4.66,0,0,1,1.2,3.13h4.6a8.49,8.49,0,0,0-2.73-5.81,10.13,10.13,0,0,0-11.12-.76,8.5,8.5,0,0,0-3.24,3.76A13.38,13.38,0,0,0,172.95,63v1.36q0,5,2.46,7.93a8.4,8.4,0,0,0,6.75,2.89A9.34,9.34,0,0,0,188.48,73.12Z"/><path class="cls-1" d="M202.46,52.56h-8.29V74.88h4.6V66.71h3.66l4.19,8.17h4.94v-.21l-4.83-9.12a6.74,6.74,0,0,0,3-2.43,6.87,6.87,0,0,0,1-3.81,6.09,6.09,0,0,0-2.15-5A9.37,9.37,0,0,0,202.46,52.56Zm2.7,9.54a3.8,3.8,0,0,1-2.68.88h-3.71v-6.7h3.69a3.73,3.73,0,0,1,2.75.9,3.37,3.37,0,0,1,.9,2.48A3.15,3.15,0,0,1,205.16,62.1Z"/><path class="cls-1" d="M224.89,52.56h-4.26l-8.31,22.32h4.89l1.53-4.6h8.06l1.55,4.6h4.89Zm-4.91,14,2.77-8.36,2.81,8.36Z"/><path class="cls-1" d="M134.58,97.92a1.72,1.72,0,0,0,1.6.78h1V97.44l-.47-.06a.7.7,0,0,1-.55-.37,2.15,2.15,0,0,1-.17-1V94.9a4.07,4.07,0,0,0-.51-2.12,2.91,2.91,0,0,0-1.67-1.24,3.82,3.82,0,0,0,1.65-1.26,3.06,3.06,0,0,0,.58-1.84,3.59,3.59,0,0,0-1.24-2.92,5.44,5.44,0,0,0-3.56-1H125v1.23l1.59.27V97.2l-1.59.27V98.7h5.11V97.47l-1.59-.27V92.36h3.09a2.39,2.39,0,0,1,1.81.7,2.58,2.58,0,0,1,.67,1.87V96A3.59,3.59,0,0,0,134.58,97.92Zm-1.17-7.7a3.62,3.62,0,0,1-2.34.62h-2.53V86h2.72a3.11,3.11,0,0,1,2.18.65,2.31,2.31,0,0,1,.7,1.78A2.21,2.21,0,0,1,133.42,90.23Z"/><path class="cls-1" d="M147.1,97.61l-.75-1.25a3.94,3.94,0,0,1-1.27.77,4.84,4.84,0,0,1-1.71.28,2.46,2.46,0,0,1-2.08-1,4.18,4.18,0,0,1-.77-2.51l0,0h6.86v-1.2a5.12,5.12,0,0,0-1.1-3.44,4,4,0,0,0-3.23-1.29,4.14,4.14,0,0,0-3.18,1.5,5.41,5.41,0,0,0-1.34,3.75v.43a5.54,5.54,0,0,0,1.3,3.81,4.46,4.46,0,0,0,3.51,1.47,6,6,0,0,0,2.24-.37A4.61,4.61,0,0,0,147.1,97.61Zm-5.68-7.34a2.08,2.08,0,0,1,1.65-.82,2.16,2.16,0,0,1,1.8.76,3,3,0,0,1,.61,1.89v.25H140.6l0,0A3.86,3.86,0,0,1,141.42,90.27Z"/><path class="cls-1" d="M154,101.53l-1.59-.27V97.61a3.32,3.32,0,0,0,1.25,1,4.2,4.2,0,0,0,1.71.33,3.62,3.62,0,0,0,3-1.4,5.83,5.83,0,0,0,1.09-3.69v-.21a7,7,0,0,0-1.09-4.12,3.51,3.51,0,0,0-3.05-1.56,3.85,3.85,0,0,0-1.75.38,3.56,3.56,0,0,0-1.28,1.1l-.18-1.29h-3.24v1.24l1.59.27v11.6l-1.59.27v1.24H154Zm-1.59-10.63a2.8,2.8,0,0,1,.95-1,2.58,2.58,0,0,1,1.41-.37,2.29,2.29,0,0,1,2.09,1.15,5.61,5.61,0,0,1,.7,3v.21a4.39,4.39,0,0,1-.7,2.59,2.37,2.37,0,0,1-2.07,1A2.51,2.51,0,0,1,152.37,96Z"/><path class="cls-1" d="M165.75,98.91a4.27,4.27,0,0,0,3.45-1.5,5.78,5.78,0,0,0,1.27-3.87v-.21a5.8,5.8,0,0,0-1.27-3.87,4.69,4.69,0,0,0-6.91,0A5.81,5.81,0,0,0,161,93.32v.21a5.79,5.79,0,0,0,1.27,3.86A4.29,4.29,0,0,0,165.75,98.91Zm-2.81-5.59a5.05,5.05,0,0,1,.7-2.76,2.32,2.32,0,0,1,2.09-1.1,2.34,2.34,0,0,1,2.1,1.1,5,5,0,0,1,.71,2.76v.21a5,5,0,0,1-.71,2.77,2.55,2.55,0,0,1-4.18,0,5,5,0,0,1-.71-2.77Z"/><path class="cls-1" d="M176.34,90.13a2.2,2.2,0,0,1,1.28-.36l1.09.06L179,88,178.6,88a3.19,3.19,0,0,0-.46,0,2.58,2.58,0,0,0-1.51.46,3.7,3.7,0,0,0-1.11,1.27l-.19-1.53H172v1.24l1.59.27V97.2l-1.59.27V98.7h5.11V97.47l-1.59-.27V91.13A2.3,2.3,0,0,1,176.34,90.13Z"/><path class="cls-1" d="M185.94,98.51l-.26-1.32-.53.09a4.2,4.2,0,0,1-.57,0,1.11,1.11,0,0,1-.82-.3,1.44,1.44,0,0,1-.31-1V89.56h2V88.14h-2V85.59h-1.92v2.55h-1.67v1.43h1.67V96a3.08,3.08,0,0,0,.69,2.22,2.49,2.49,0,0,0,1.87.71,5.09,5.09,0,0,0,1.05-.11A2.47,2.47,0,0,0,185.94,98.51Z"/><polygon class="cls-1" points="192.32 97.47 190.73 97.2 190.73 88.14 187.22 88.14 187.22 89.38 188.81 89.65 188.81 97.2 187.22 97.47 187.22 98.7 192.32 98.7 192.32 97.47"/><rect class="cls-1" x="188.81" y="83.47" width="1.92" height="1.96"/><path class="cls-1" d="M203.47,92a4.39,4.39,0,0,0-.94-3.09,3.45,3.45,0,0,0-2.65-1,3.53,3.53,0,0,0-1.81.46,3.83,3.83,0,0,0-1.32,1.3l-.14-1.57h-3.31v1.24l1.59.27V97.2l-1.59.27V98.7h5.11V97.47l-1.59-.27V91a2.93,2.93,0,0,1,1-1.09,2.71,2.71,0,0,1,1.47-.4,2.21,2.21,0,0,1,1.68.59,2.86,2.86,0,0,1,.55,2V97.2l-1.59.27V98.7h5.11V97.47l-1.59-.27Z"/><path class="cls-1" d="M213.47,89.46a3.45,3.45,0,0,0-1.26-1.13,3.75,3.75,0,0,0-1.75-.39,3.57,3.57,0,0,0-3.08,1.56,6.94,6.94,0,0,0-1.11,4.11v.21a5.76,5.76,0,0,0,1.11,3.68,3.69,3.69,0,0,0,3.06,1.41,3.83,3.83,0,0,0,1.66-.34,3.4,3.4,0,0,0,1.24-1v1a3.14,3.14,0,0,1-.6,2.06,2.32,2.32,0,0,1-1.89.72,5.78,5.78,0,0,1-1.43-.19,5.69,5.69,0,0,1-1.27-.47l-.5,1.49a6.43,6.43,0,0,0,1.56.57,7.22,7.22,0,0,0,1.65.21,4.33,4.33,0,0,0,3.25-1.18,4.44,4.44,0,0,0,1.14-3.23V88.14h-1.62Zm-.13,6.37a3,3,0,0,1-1,1.12,2.54,2.54,0,0,1-1.46.39,2.33,2.33,0,0,1-2.05-1,4.39,4.39,0,0,1-.67-2.56v-.21a5.74,5.74,0,0,1,.68-3,2.24,2.24,0,0,1,2.06-1.15,2.54,2.54,0,0,1,1.44.4,3,3,0,0,1,1,1.07Z"/><polygon class="cls-1" points="133.67 120.04 133.61 120.04 129.08 108.48 126.62 108.48 125.03 108.48 125.03 109.72 126.62 110 126.62 121.2 125.03 121.47 125.03 122.7 130.14 122.7 130.14 121.47 128.54 121.2 128.54 117.08 128.35 111.33 128.4 111.32 133 122.7 134.28 122.7 138.88 111.31 138.93 111.32 138.74 117.08 138.74 121.2 137.15 121.47 137.15 122.7 142.25 122.7 142.25 121.47 140.66 121.2 140.66 110 142.25 109.72 142.25 108.48 138.19 108.48 133.67 120.04"/><path class="cls-1" d="M148.14,111.94a4.14,4.14,0,0,0-3.18,1.5,5.41,5.41,0,0,0-1.34,3.75v.43a5.54,5.54,0,0,0,1.3,3.81,4.46,4.46,0,0,0,3.51,1.47,6,6,0,0,0,2.24-.37,4.63,4.63,0,0,0,1.5-.92l-.75-1.25a3.94,3.94,0,0,1-1.27.77,4.84,4.84,0,0,1-1.71.28,2.46,2.46,0,0,1-2.08-1,4.18,4.18,0,0,1-.77-2.51l0,0h6.86v-1.2a5.12,5.12,0,0,0-1.1-3.44A4,4,0,0,0,148.14,111.94Zm2.4,4.42h-4.87l0,0a3.86,3.86,0,0,1,.84-2,2.08,2.08,0,0,1,1.65-.82,2.16,2.16,0,0,1,1.8.76,3,3,0,0,1,.61,1.89Z"/><path class="cls-1" d="M159.21,121.28a4.2,4.2,0,0,1-.57,0,1.11,1.11,0,0,1-.82-.3,1.43,1.43,0,0,1-.31-1v-6.42h2v-1.43h-2v-2.55h-1.92v2.55h-1.67v1.43h1.67V120a3.08,3.08,0,0,0,.69,2.22,2.5,2.5,0,0,0,1.87.71,5.09,5.09,0,0,0,1.05-.11,2.5,2.5,0,0,0,.8-.29l-.26-1.32Z"/><path class="cls-1" d="M171.21,116.08a4.48,4.48,0,0,0-.94-3.12,3.41,3.41,0,0,0-2.64-1,3.7,3.7,0,0,0-1.76.42,3.88,3.88,0,0,0-1.34,1.18v-6.07H161v1.24l1.59.27V121.2l-1.59.27v1.23h5.11v-1.23l-1.59-.27v-6.3a3.14,3.14,0,0,1,1.07-1,2.81,2.81,0,0,1,1.44-.38,2.14,2.14,0,0,1,1.67.63,2.83,2.83,0,0,1,.56,1.93v5.14l-1.59.27v1.23h5.11v-1.23l-1.59-.27Z"/><path class="cls-1" d="M178.72,111.94a4.25,4.25,0,0,0-3.45,1.52,5.81,5.81,0,0,0-1.27,3.86v.21a5.79,5.79,0,0,0,1.27,3.86,4.72,4.72,0,0,0,6.91,0,5.78,5.78,0,0,0,1.27-3.87v-.21a5.8,5.8,0,0,0-1.27-3.87A4.29,4.29,0,0,0,178.72,111.94Zm2.81,5.6a5,5,0,0,1-.71,2.77,2.55,2.55,0,0,1-4.18,0,5,5,0,0,1-.71-2.77v-.21a5.05,5.05,0,0,1,.7-2.76,2.32,2.32,0,0,1,2.09-1.1,2.34,2.34,0,0,1,2.1,1.1,5,5,0,0,1,.71,2.76Z"/><path class="cls-1" d="M194,107.47h-3.52v1.24L192,109v4.31a3.42,3.42,0,0,0-1.23-1,3.74,3.74,0,0,0-1.66-.35,3.5,3.5,0,0,0-3,1.56,7.06,7.06,0,0,0-1.09,4.11v.21a5.85,5.85,0,0,0,1.09,3.69,3.61,3.61,0,0,0,3,1.4,3.84,3.84,0,0,0,1.73-.37,3.39,3.39,0,0,0,1.26-1.09l.16,1.26h3.26v-1.23L194,121.2ZM192,119.85a3,3,0,0,1-1,1.1,2.54,2.54,0,0,1-1.45.39,2.27,2.27,0,0,1-2-1,4.48,4.48,0,0,1-.65-2.56v-.21a5.9,5.9,0,0,1,.66-3,2.19,2.19,0,0,1,2-1.14,2.55,2.55,0,0,1,1.43.39,3,3,0,0,1,1,1.05Z"/></svg>