<svg id="Layer_1" data-name="Layer 1" xmlns="http://www.w3.org/2000/svg" width="120" height="120" viewBox="0 0 120 120"><defs><style>.cls-1{fill:#662d91;}</style></defs><title>cash-in-2019</title><path class="cls-1" d="M60,24.72C40.84,24.72,25.25,40.55,25.25,60S40.84,95.28,60,95.28,94.75,79.45,94.75,60,79.16,24.72,60,24.72Zm0,67.55C42.5,92.27,28.25,77.79,28.25,60S42.5,27.73,60,27.73,91.74,42.21,91.74,60,77.5,92.27,60,92.27Z"/><path class="cls-1" d="M60,35.88A24.12,24.12,0,1,0,83.77,60,24,24,0,0,0,60,35.88Zm0,45.24A21.12,21.12,0,1,1,80.76,60,21,21,0,0,1,60,81.11Z"/><polygon class="cls-1" points="58.49 5.81 58.5 19.4 61.5 19.4 61.5 5.81 67.92 12.33 70.06 10.22 60 0 49.93 10.22 52.08 12.33 58.49 5.81"/><polygon class="cls-1" points="20.69 31.89 20.62 22.75 30.23 32.36 32.36 30.23 22.74 20.62 31.89 20.69 31.92 17.68 17.57 17.57 17.68 31.92 20.69 31.89"/><polygon class="cls-1" points="19.4 61.5 19.4 58.49 5.81 58.5 12.33 52.08 10.22 49.94 0 60 10.22 70.07 12.33 67.92 5.81 61.5 19.4 61.5"/><polygon class="cls-1" points="30.23 87.64 20.62 97.25 20.69 88.11 17.68 88.08 17.57 102.43 31.92 102.32 31.89 99.31 22.74 99.38 32.36 89.77 30.23 87.64"/><polygon class="cls-1" points="61.5 114.19 61.5 100.59 58.5 100.59 58.5 114.19 52.08 107.67 49.94 109.78 60 120 70.06 109.78 67.92 107.67 61.5 114.19"/><polygon class="cls-1" points="99.31 88.11 99.38 97.25 89.77 87.64 87.64 89.77 97.25 99.38 88.1 99.31 88.08 102.32 102.42 102.42 102.32 88.08 99.31 88.11"/><polygon class="cls-1" points="109.78 49.93 107.67 52.08 114.19 58.49 100.59 58.5 100.59 61.5 114.19 61.5 107.67 67.92 109.78 70.06 120 60 109.78 49.93"/><polygon class="cls-1" points="89.77 32.36 99.38 22.74 99.31 31.89 102.32 31.92 102.42 17.57 88.08 17.68 88.1 20.69 97.25 20.62 87.64 30.23 89.77 32.36"/><path class="cls-1" d="M63.87,59.5c-.54-.25-2.26-.93-5.25-2.06a3.55,3.55,0,0,1-2.54-4,3.76,3.76,0,0,1,4-3c2.81,0,4.33,1.39,4.5,4.4l1.5,0,1.5.06s0-.2,0-.55c-.19-3-1.83-6.1-5.78-6.81V44.3h-3v3.18A6.58,6.58,0,0,0,57.7,60.3c.82.31,4.16,1.57,4.9,1.92a3.4,3.4,0,0,1,2,3.89,3.9,3.9,0,0,1-4.15,3c-4.67,0-5.12-3.19-5.15-4.17v-.45l-3,.08V65a7.2,7.2,0,0,0,6.63,7v3.2h3V71.94a6.82,6.82,0,0,0,5.6-5.18A6.39,6.39,0,0,0,63.87,59.5Z"/></svg>