<svg id="Layer_1" data-name="Layer 1" xmlns="http://www.w3.org/2000/svg" width="120" height="87.11" viewBox="0 0 120 87.11"><defs><style>.cls-1{fill:#662d91;}</style></defs><title>graph</title><path class="cls-1" d="M30,48.28A15.94,15.94,0,1,0,45.95,64.22,16,16,0,0,0,30,48.28ZM16.73,64.22A13.26,13.26,0,0,1,27.91,51.15v14l8.56,10.62A13.11,13.11,0,0,1,30,77.5,13.29,13.29,0,0,1,16.73,64.22Zm21.92,10-8.08-10V51a13.19,13.19,0,0,1,8.08,23.22Z"/><path class="cls-1" d="M103.84,69.71l-4.48-6.3-4.1,2.77L87.72,50.62,83.09,68.8c-1-2.29-2.07-4.58-2.14-4.73L80.4,62.9l-15.89,6.9,1.06,2.45,13.5-5.86c.86,1.88,2.5,5.52,3,7.11l1.45,4.24L88.5,58.33,94.21,70.1l4.49-3,4.76,6.7,3.15-3,7.44,1,.34-2.64-8.7-1.12Z"/><path class="cls-1" d="M10.36,27.23a5.74,5.74,0,0,1,.73-.92,2.78,2.78,0,0,1,3.65-.43l.47.21.29.11.31,0c1.41-.14,3.78-3.09,6.41-8a2.14,2.14,0,0,1,1.73-1.25,2.15,2.15,0,0,1,1.76,1.36c.27.45.68,1.22,1.16,2.1,1.56,2.9,2.92,5.37,3.85,6.21a2.39,2.39,0,0,0,1.92.88c1.58-.12,2.86-2,3-2.24,1-1.59,1.72-2.27,2.51-2.27,1.22,0,2.5,2.09,2.93,3.09a3.47,3.47,0,0,0,2,2.08,3,3,0,0,0,2.31-.23c2-1.19,3.6-1.67,4.77-1.4s1.65,1,2.35,2.2a4,4,0,0,0,1.62,1.81l1.22-2.34a6.53,6.53,0,0,1-.56-.84,6.36,6.36,0,0,0-4.06-3.42c-1.89-.42-4.08.15-6.81,1.72-.06,0-.25-.17-.44-.6-.08-.19-2-4.63-5.35-4.71-2.69,0-4.19,2.5-4.8,3.52a4.3,4.3,0,0,1-.81.89h0c-.74-.68-2.52-4-3.37-5.58-.5-.94-.94-1.75-1.19-2.16a4.66,4.66,0,0,0-4.07-2.7A4.84,4.84,0,0,0,19.8,17c-2.17,4.08-3.62,5.72-4.24,6.31a5.25,5.25,0,0,0-6.26,1,7.29,7.29,0,0,0-1.13,1.39,7.23,7.23,0,0,1-1.89,2.08l1.4,2.26A9.54,9.54,0,0,0,10.36,27.23Z"/><path class="cls-1" d="M0,0V87.11H120V0ZM117.34,42.22h-56V2.66h56ZM58.67,2.66V42.22h-56V2.66Zm-56,42.22h56V84.45h-56ZM61.33,84.45V44.89h56V84.45Z"/><path class="cls-1" d="M69.3,38a1.33,1.33,0,0,0,1.06.53H86a1.33,1.33,0,0,0,1.28-1.7L79.47,9.27a1.38,1.38,0,0,0-2.56,0L69.08,36.79A1.34,1.34,0,0,0,69.3,38ZM78.19,14.5l6.06,21.32H72.13Z"/><path class="cls-1" d="M93.36,38.48H109a1.33,1.33,0,0,0,1.19-1.92l-7.83-15.82a1.39,1.39,0,0,0-2.39,0L92.16,36.56a1.33,1.33,0,0,0,1.19,1.92Zm7.83-14.14,5.68,11.48H95.5Z"/></svg>