<svg id="Layer_1" data-name="Layer 1" xmlns="http://www.w3.org/2000/svg" width="120" height="120.65" viewBox="0 0 120 120.65"><defs><style>.cls-1{fill:#662d91;}</style></defs><title>hospital</title><rect class="cls-1" x="29.59" y="38.58" width="18.71" height="1.97"/><rect class="cls-1" x="7.07" y="38.58" width="18.71" height="1.97"/><rect class="cls-1" x="29.59" y="46.21" width="18.71" height="1.97"/><rect class="cls-1" x="7.07" y="46.21" width="18.71" height="1.97"/><rect class="cls-1" x="7.07" y="53.84" width="41.42" height="1.97"/><rect class="cls-1" x="29.59" y="61.48" width="18.71" height="1.97"/><rect class="cls-1" x="7.07" y="61.48" width="18.71" height="1.97"/><rect class="cls-1" x="29.59" y="69.11" width="18.71" height="1.97"/><rect class="cls-1" x="7.07" y="69.11" width="18.71" height="1.97"/><rect class="cls-1" x="29.59" y="76.74" width="18.71" height="1.97"/><rect class="cls-1" x="7.07" y="76.74" width="18.71" height="1.97"/><rect class="cls-1" x="29.59" y="84.37" width="18.71" height="1.97"/><rect class="cls-1" x="7.07" y="84.37" width="18.71" height="1.97"/><rect class="cls-1" x="7.07" y="92.01" width="41.42" height="1.97"/><rect class="cls-1" x="37.33" y="25.42" width="3.47" height="1.97"/><rect class="cls-1" x="14.56" y="25.42" width="3.47" height="1.97"/><polygon class="cls-1" points="22.97 18.93 22.97 33.81 24.95 33.81 24.95 27.4 30.49 27.4 30.49 33.81 32.46 33.81 32.46 18.93 30.49 18.93 30.49 25.43 24.95 25.43 24.95 18.93 22.97 18.93"/><rect class="cls-1" x="41.98" width="1.97" height="4.18"/><rect class="cls-1" x="11.48" width="1.97" height="4.18"/><path class="cls-1" d="M74.58,46.07H60.69v9.79H74.58Zm-2,7.82H62.66V48H72.6Z"/><path class="cls-1" d="M93.57,46.07H79.68v9.79H93.57Zm-2,7.82H81.65V48h9.94Z"/><path class="cls-1" d="M112.55,46.07H98.67v9.79h13.89Zm-2,7.82h-9.94V48h9.94Z"/><path class="cls-1" d="M74.58,61.21H60.69V71H74.58ZM72.6,69H62.66V63.19H72.6Z"/><path class="cls-1" d="M93.57,61.21H79.68V71H93.57Zm-2,7.82H81.65V63.19h9.94Z"/><path class="cls-1" d="M98.67,71h13.89V61.21H98.67Zm2-7.82h9.94V69h-9.94Z"/><path class="cls-1" d="M60.69,86.15H74.58V76.35H60.69Zm2-7.82H72.6v5.85H62.66Z"/><path class="cls-1" d="M79.68,86.15H93.57V76.35H79.68Zm2-7.82h9.94v5.85H81.65Z"/><path class="cls-1" d="M98.67,86.15h13.89V76.35H98.67Zm2-7.82h9.94v5.85h-9.94Z"/><path class="cls-1" d="M82.16,40.72h9.3V33h7.69v-9.3H91.46V15.67h-9.3v8.07H74.09V33h8.07Zm-6.09-9.67V25.71h8.07V17.64h5.35v8.07h7.69v5.35H89.48v7.69H84.13V31.06Z"/><path class="cls-1" d="M96.06,38.38v2h22V92H60.18v2H118v24.69h-5.35v-5.86H113v-2h-.31V99.28H7.38v11.55H7.07v2h.31v5.74H2V13.92H53.49V94.41h2V40.35H76.94v-2H55.46V11.94H51.93V4.65H4.25v7.3H0V120.53H50.3l-.25.12H120V38.38ZM6.22,6.62H50V11.9H6.22ZM34.44,118.46H9.35v-5.65H34.44Zm49.29,0H36.41v-5.65H83.73Zm27,0h-25v-5.65h25Zm0-7.62h-25v-4.49h-2v4.49H36.41v-4.49h-2v4.49H9.35v-9.58H110.7Z"/></svg>