<svg id="Layer_1" data-name="Layer 1" xmlns="http://www.w3.org/2000/svg" width="120" height="137.86" viewBox="0 0 120 137.86"><defs><style>.cls-1{fill:#662d91;}</style></defs><title>patient-invoice-2019</title><rect class="cls-1" x="13.66" y="55.39" width="2.54" height="2.74"/><rect class="cls-1" x="18.05" y="55.39" width="2.54" height="2.74"/><rect class="cls-1" x="22.44" y="55.39" width="2.54" height="2.74"/><path class="cls-1" d="M21.77,25.09a2.7,2.7,0,0,1-1.17-.26A2.15,2.15,0,0,1,19.37,23l-.5-8.78A13.77,13.77,0,0,1,22.53,4,12.63,12.63,0,0,1,31.8,0h9.7a12.63,12.63,0,0,1,9.26,4,13.77,13.77,0,0,1,3.66,10.22L53.92,23c0,.85-.49,1.87-2.33,1.92H51.3a1.94,1.94,0,0,1-1.57-.5,2,2,0,0,1-.64-1.56l.18-3.73c.14-2.73,0-3.63-2-4.72a44.11,44.11,0,0,1-10.64,1.11A44.11,44.11,0,0,1,26,14.43c-1.95,1.1-2.12,2-2,4.72h0s.14,2.45.24,3.52a2.11,2.11,0,0,1-.93,1.94A2.78,2.78,0,0,1,21.77,25.09Zm10-22.35a9.92,9.92,0,0,0-7.27,3.14,11,11,0,0,0-2.92,8.18l.06,1.12c.51-1.37,1.56-2.44,3.55-3.46l.5-.26.54.17a38.81,38.81,0,0,0,10.38,1.15A38.8,38.8,0,0,0,47,11.65l.54-.17.5.26c2,1,3,2.08,3.55,3.45l.06-1.12a11,11,0,0,0-2.92-8.18A9.91,9.91,0,0,0,41.5,2.74Z"/><path class="cls-1" d="M36.66,44.53C26,44.44,24.33,38.25,22.36,31.07A6.82,6.82,0,0,1,20,27.3,7,7,0,0,1,20,23l.41-1.07,1,.21-.14-2.86c-.18-3.73.34-5.71,3.94-7.56l.5-.26.54.17a38.81,38.81,0,0,0,10.38,1.15A38.8,38.8,0,0,0,47,11.65l.54-.17.5.26c3.6,1.85,4.13,3.82,3.94,7.56l-.14,2.82.78-.15L53.33,23a7,7,0,0,1,0,4.28,6.82,6.82,0,0,1-2.41,3.77C49,38.25,47.26,44.44,36.66,44.53ZM22.38,25a5.62,5.62,0,0,0,.22,1.57,3.8,3.8,0,0,0,1.46,2.33l.63.25L25,30.3c2,7.36,3.12,11.41,11.66,11.48S46.29,37.66,48.3,30.3l.32-1.16.63-.25a3.8,3.8,0,0,0,1.46-2.33A5.56,5.56,0,0,0,50.92,25a1.93,1.93,0,0,1-1.19-.51,2,2,0,0,1-.65-1.57l.18-3.73c.14-2.73,0-3.63-2-4.72a44.11,44.11,0,0,1-10.64,1.11A44.11,44.11,0,0,1,26,14.43c-1.95,1.1-2.12,2-2,4.72l.19,3.93a1.83,1.83,0,0,1-.65,1.49A1.75,1.75,0,0,1,22.38,25Zm-.89-1.77h0Z"/><path class="cls-1" d="M60.06,78.58H0V62.26a5.68,5.68,0,0,1,.12-1.16C.55,59,2.37,52,7.68,49s17.78-9.27,17.9-9.33l1.15-.58,10.5,18,9.18-17.66,1.21.6s12.23,6.1,17.76,9c3.33,1.74,5.32,5.43,6.4,8.22l-2.56,1c-.91-2.35-2.54-5.44-5.12-6.78-4.46-2.32-13.29-6.75-16.51-8.36L37.38,62.76l-11.71-20C22.47,44.34,13.4,49,9,51.41s-6,9-6.22,10.25a2.91,2.91,0,0,0-.06.6V75.83H58.81A6.66,6.66,0,0,0,59,67.19H21.9l-4.38-3.83,1.81-2.07,3.6,3.15H60.18l.4.43a9.53,9.53,0,0,1-.12,13.25Z"/><path class="cls-1" d="M48.67,78.44H33.23l17.84-36.6,12.26,6.3Zm-11-2.74h9.33L59.69,49.35,52.3,45.56Z"/><rect class="cls-1" x="53.65" y="70.67" width="5.63" height="2.74" transform="translate(-33.06 91.12) rotate(-63.94)"/><rect class="cls-1" x="29.67" y="70.55" width="5.63" height="2.74" transform="translate(-46.4 69.51) rotate(-63.94)"/><rect class="cls-1" x="23.77" y="70.55" width="5.63" height="2.74" transform="translate(-49.72 64.34) rotate(-64.04)"/><rect class="cls-1" x="17.86" y="70.55" width="5.63" height="2.74" transform="translate(-53.04 59.03) rotate(-64.04)"/><path class="cls-1" d="M120,137.86H65.45V61.55h37.49L120,78.33Zm-51.8-2.74h49.06V79.48L101.82,64.29H68.2Z"/><path class="cls-1" d="M119.87,78.9l-17-.18v-17ZM105.62,76l7.6.08-7.61-7.68Z"/><path class="cls-1" d="M95.64,80.08H73.44V71.32h22.2ZM76.18,77.34H92.89V74.06H76.18Z"/><path class="cls-1" d="M111.11,118H73.44V86.29h37.67Zm-34.93-2.74h32.19V89H76.18Z"/><rect class="cls-1" x="85.41" y="87.66" width="2.74" height="6.32"/><rect class="cls-1" x="97.88" y="87.66" width="2.74" height="5.18"/><rect class="cls-1" x="74.31" y="91.84" width="35.93" height="2.74"/><rect class="cls-1" x="107.21" y="125.91" width="2.54" height="2.74"/><rect class="cls-1" x="102.82" y="125.91" width="2.54" height="2.74"/><rect class="cls-1" x="98.42" y="125.91" width="2.54" height="2.74"/><rect class="cls-1" x="94.03" y="125.91" width="2.54" height="2.74"/><path class="cls-1" d="M92.81,111.16a4,4,0,0,1-4.31-3.82l2.74-.27c0,.73.3,1.35,1.57,1.35a1,1,0,0,0,1.14-.75.79.79,0,0,0-.5-.92c-.31-.14-1.68-.66-2.08-.81a3.63,3.63,0,0,1-2.5-4.09,3.71,3.71,0,0,1,3.76-3,3.79,3.79,0,0,1,4,3.74l-1.36.25-1.37,0v-.17c-.06-1-.65-1.12-1.28-1.12a1,1,0,0,0-1.06.75c0,.21,0,.72.68,1,.54.21,2,.77,2.37.93a3.51,3.51,0,0,1,2,4A3.77,3.77,0,0,1,92.81,111.16Z"/><rect class="cls-1" x="91.35" y="96.98" width="2.74" height="3.24"/><rect class="cls-1" x="91.43" y="109.79" width="2.74" height="3.19"/></svg>