<svg id="Layer_1" data-name="Layer 1" xmlns="http://www.w3.org/2000/svg" width="120" height="137.5" viewBox="0 0 120 137.5"><defs><style>.cls-1{fill:#662d91;}</style></defs><title>unlock-2019</title><path class="cls-1" d="M119.44,75.54c-1.47-4.21-5-8.24-8.12-11.8-1.15-1.31-4.11-4.69-4.56-5.9,1.93-3.46.68-8.61-.34-12.83a25.42,25.42,0,0,1-.65-3.13c-.78-13.18-5.84-23.48-15-30.64C70.71-4.39,38.21.83,38.09.87,37.71.9-.67,4.64,0,48.71c0,2.52.06,2.74.09,3.54l0,.55c.84,19.7,13,39.25,20.25,50.93a81,81,0,0,1,4.4,7.53c.82,4.64.21,20.36-.1,26.08l2.6.14c0-.86,1.12-21.15,0-26.84l-.07-.25a73.46,73.46,0,0,0-4.64-8C15.46,90.9,3.53,71.71,2.72,52.69l0-.6c0-.73,0-.95-.09-3.42C2,7.23,38,3.49,38.44,3.44c.31-.06,31.58-5.07,50.72,9.85,8.56,6.68,13.27,16.35,14,28.74a25,25,0,0,0,.73,3.64c.92,3.81,2.07,8.55.47,11.08-.94,1.49.49,3.57,5,8.7,3,3.38,6.32,7.21,7.63,10.94a5.17,5.17,0,0,1-.37,4.83,5.49,5.49,0,0,1-3.56,2.23c-.86,0-1.82,0-2.79,0s-2.38-.07-3.28,0l-1.16.08-.05,1.16c-.08,2,0,6.89.05,11.26.06,3.84.12,8,.12,11.85,0,8.68-7.17,11-11,11H81.62V137.5h2.6V121.34H95c4.69,0,13.57-2.84,13.57-13.57,0-3.81-.06-8-.12-11.94-.05-3.56-.11-7.51-.08-9.85.6,0,1.25,0,1.85,0,1,0,2.05.05,2.95,0a8,8,0,0,0,5.63-3.37A7.65,7.65,0,0,0,119.44,75.54Z"/><path class="cls-1" d="M32.07,37.83a9.87,9.87,0,1,0,9.87,9.87A9.88,9.88,0,0,0,32.07,37.83Zm0,17.13a7.27,7.27,0,1,1,7.27-7.27A7.27,7.27,0,0,1,32.07,55Z"/><polygon class="cls-1" points="65.67 30.12 65.67 46.39 42.62 46.39 42.62 48.99 85.6 48.99 85.6 46.39 83.14 46.39 83.14 32.06 80.55 32.06 80.55 46.39 75.71 46.39 75.71 37.89 73.11 37.89 73.11 46.39 68.27 46.39 68.27 30.12 65.67 30.12"/></svg>