<svg id="Layer_1" data-name="Layer 1" xmlns="http://www.w3.org/2000/svg" xmlns:xlink="http://www.w3.org/1999/xlink" width="1.97in" height="3.06in" viewBox="0 0 141.51 220.3"><defs><style>.cls-1,.cls-4,.cls-5,.cls-7{fill:#fff;}.cls-1,.cls-2{stroke:#3371b8;}.cls-1,.cls-2,.cls-3,.cls-5{stroke-miterlimit:2.61;}.cls-1{stroke-width:1.51px;}.cls-2{stroke-width:1.52px;fill:url(#linear-gradient);}.cls-3,.cls-6{fill:#231f20;}.cls-3{stroke:#231f20;stroke-width:0.71px;}.cls-3,.cls-4,.cls-5{fill-rule:evenodd;}.cls-5,.cls-8{stroke:#fff;}.cls-5{stroke-width:0.15px;}.cls-8{stroke-width:1px;fill:url(#linear-gradient-2);}</style><linearGradient id="linear-gradient" x1="70.76" y1="219.55" x2="70.76" y2="152.63" gradientUnits="userSpaceOnUse"><stop offset="0" stop-color="#18325a"/><stop offset="0.13" stop-color="#1c3c69"/><stop offset="0.37" stop-color="#27558f"/><stop offset="0.6" stop-color="#3371b8"/></linearGradient><linearGradient id="linear-gradient-2" x1="5.28" y1="178.63" x2="136.23" y2="178.63" xlink:href="#linear-gradient"/></defs><title>Artboard 2</title><path class="cls-1" d="M140.76,159.92a8.28,8.28,0,0,1-8.31,8.26H9.06a8.28,8.28,0,0,1-8.3-8.26V9A8.28,8.28,0,0,1,9.06.76H132.45A8.28,8.28,0,0,1,140.76,9Z"/><path class="cls-2" d="M140.75,211.29a8.27,8.27,0,0,1-8.28,8.26H9a8.27,8.27,0,0,1-8.28-8.26v-50.4A8.27,8.27,0,0,1,9,152.63H132.47a8.27,8.27,0,0,1,8.28,8.26Z"/><path class="cls-3" d="M70.76,12.37A49.54,49.54,0,1,1,21.22,61.91,49.54,49.54,0,0,1,70.76,12.37Z"/><path class="cls-4" d="M63.88,38.69c2.66,3,1.67,8.16-2.22,11.42s-9.18,3.43-11.84.39S48.16,42.34,52,39.09s9.18-3.43,11.84-.39Z"/><path class="cls-4" d="M95.46,91.53c-2.07,6.26-3.39,8.75-6.53,14.92,12.4-5.74,18.41-11.86,24.1-21.95-5.25,2.93-11.85,6-17.57,7Z"/><path class="cls-5" d="M46.3,92c2.5,6.39,3.17,8.44,6.4,14.48-11.37-5.39-20.94-14-23.7-21.95C35,87.73,40.68,90.81,46.3,92Z"/><path class="cls-5" d="M41.35,37.67A39.31,39.31,0,0,0,25.61,44c5.19-10.43,11-18.34,21.06-24a109.74,109.74,0,0,0-5.33,17.73Z"/><path class="cls-4" d="M41.4,37.72C37.72,57.16,38.24,69.65,46.3,92c-8.84-7.9-18.48-16.75-23.51-29.63C28,52.46,32,46.39,41.4,37.72Z"/><path class="cls-4" d="M46.3,92C62.15,96.1,76,95.67,94.22,91.8c-5.62,7.13-9.47,9.45-22.37,17C61.16,104.08,55,101.41,46.3,92Z"/><path class="cls-5" d="M76,14.42c-15.57,6-27.77,13.8-34.24,23.12,10.28-2.37,25.55-8.3,53.85.18,2.34,17.73,5.72,28.18-.1,53.14,12.86-12.08,18.68-17.37,23-34.62C116.52,41.13,104.82,17.09,76,14.42Z"/><path class="cls-6" d="M110.2,103.4h1.93v-1.13h-5.19v1.13h1.93v5.25h1.33V103.4Zm8.84-1.13h-1.92l-1.14,5h0l-1.15-5h-1.95v6.38h1.24v-5.33h0l1.17,5.33h1.3l1.19-5.33h0v5.33H119v-6.38Z"/><path class="cls-6" d="M24,141H38.81v-3.38H27.59V132.8h7.82v-3.38H27.59V125.1H38.81v-3.38H24v7.7h-2.3v3.38H24V141Zm18.74,0h3.56V132.8h8.8V141h3.56V121.73H55.13v7.7h-8.8v-7.7H42.77v7.7h-2.3v3.38h2.3V141Zm36.47.4V121.73H75.68v11.81l-12.42-12.2V141h3.56V129.19L79.24,141.4Zm2.24-.4h3.8l1.47-3.62h8.16L96.38,141h3.84l-8.16-19.26h-8v3.19H88.5l-7,16.07ZM88,134.18l2.82-6.9,2.79,6.9Zm28.86,1.17a6.57,6.57,0,0,1-5.34,2.67,6.66,6.66,0,0,1,0-13.31,6.26,6.26,0,0,1,5.27,2.79l2.94-2.21a10.33,10.33,0,0,0-8.22-4,10,10,0,1,0,0,20.06,10.33,10.33,0,0,0,8.22-4l-2.88-2.09Z"/><path class="cls-7" d="M7,206.86V188.8h3.65v7.11h7.14V188.8H21.4v18.06H17.75V199H10.61v7.9Z"/><path class="cls-7" d="M25.2,206.86V188.8h3.55l7.39,12.06V188.8h3.39v18.06H35.87l-7.28-11.77v11.77Z"/><path class="cls-7" d="M59.66,206.86h-4l-1.58-4.1H46.9l-1.49,4.1H41.55l7-18.06h3.86ZM53,199.72,50.46,193,48,199.72Z"/><path class="cls-7" d="M61.6,206.86V188.8h5.85a21.21,21.21,0,0,1,4.34.27,4.74,4.74,0,0,1,2.6,1.77,5.61,5.61,0,0,1,1,3.52,5.9,5.9,0,0,1-.6,2.8,4.94,4.94,0,0,1-1.53,1.78,5.3,5.3,0,0,1-1.89.86,20.85,20.85,0,0,1-3.78.26H65.24v6.81Zm3.65-15V197h2a9.42,9.42,0,0,0,2.88-.28,2.39,2.39,0,0,0,1.14-.89,2.42,2.42,0,0,0,.41-1.4,2.34,2.34,0,0,0-.58-1.63,2.52,2.52,0,0,0-1.47-.8,17.52,17.52,0,0,0-2.62-.12Z"/><path class="cls-7" d="M85,206.86V188.8H98.36v3.05H88.62v4h9.07v3H88.62v4.91H98.71v3Z"/><path class="cls-7" d="M101.82,206.86V188.8h3.64v7.11h7.14V188.8h3.64v18.06H112.6V199h-7.14v7.9Z"/><path class="cls-7" d="M120.06,206.86V188.8h3.55L131,200.86V188.8h3.39v18.06h-3.66l-7.28-11.77v11.77Z"/><line class="cls-8" x1="5.28" y1="178.63" x2="136.23" y2="178.63"/><path class="cls-7" d="M11.27,172H8.22l5-13.9h3.35l4.9,13.9H18.27l-.89-2.86H12.25ZM13,166.73h3.54l-1.72-5.5h0Z"/><path class="cls-7" d="M31.38,162.65a2.83,2.83,0,0,0-3.08-2.4c-1.39,0-3.45.93-3.45,4.86,0,2.5,1,4.75,3.45,4.75a3,3,0,0,0,3.08-2.62h2.9c-.58,3-2.56,5.13-6,5.13-3.7,0-6.35-2.5-6.35-7.3s2.81-7.34,6.39-7.34c4.16,0,5.85,2.86,6,4.92Z"/><path class="cls-7" d="M45.37,162.65a2.83,2.83,0,0,0-3.08-2.4c-1.39,0-3.45.93-3.45,4.86,0,2.5,1,4.75,3.45,4.75a3,3,0,0,0,3.08-2.62h2.9c-.58,3-2.56,5.13-6,5.13-3.7,0-6.35-2.5-6.35-7.3s2.81-7.34,6.39-7.34c4.16,0,5.85,2.86,6,4.92Z"/><path class="cls-7" d="M50.48,158.1h7c3.7,0,4.38,2.73,4.38,3.93a3.32,3.32,0,0,1-2.14,3.31c1.14.5,1.76.93,1.76,3.52,0,2,0,2.54.62,2.77V172H58.91a9.2,9.2,0,0,1-.31-2.81c0-1.9-.12-2.63-2.27-2.63h-3V172H50.48Zm6.25,6.12c1.51,0,2.25-.52,2.25-1.9,0-.74-.33-1.82-2-1.82H53.33v3.72Z"/><path class="cls-7" d="M74.69,160.56H67.31v2.92h6.78v2.46H67.31v3.6H75V172H64.47V158.1H74.69Z"/><path class="cls-7" d="M77.39,158.1h6.14c4.68,0,5.65,4,5.65,6.62,0,3-1.18,7.28-5.77,7.28h-6Zm2.84,11.5h2.83c2.36,0,3.16-2.38,3.16-4.67,0-4.1-2-4.43-3.2-4.43H80.23Z"/><path class="cls-7" d="M94,172h-2.9V158.1H94Z"/><path class="cls-7" d="M102.66,172h-2.9V160.56h-4.2V158.1h11.31v2.46h-4.2Z"/><path class="cls-7" d="M118.81,160.56h-7.38v2.92h6.78v2.46h-6.78v3.6h7.71V172H108.59V158.1h10.22Z"/><path class="cls-7" d="M121.51,158.1h6.14c4.69,0,5.65,4,5.65,6.62,0,3-1.18,7.28-5.77,7.28h-6Zm2.84,11.5h2.83c2.36,0,3.16-2.38,3.16-4.67,0-4.1-2-4.43-3.2-4.43h-2.79Z"/></svg>