<svg id="Layer_1" data-name="Layer 1" xmlns="http://www.w3.org/2000/svg" viewBox="0 0 248 422.3"><defs><style>.cls-1{fill:#002171;}.cls-2{fill:#fff;}.cls-3{fill:#e50000;}</style></defs><title>2019_great_places_to_work</title><polygon class="cls-1" points="248 355.6 248 0 0 0 0 355.6 124 422.3 248 355.6"/><path class="cls-2" d="M24.8,346.5H21.9l-7.2-10.1v10.1H11.3V330.1h2.9l7.2,10.2V330.1h3.4Z"/><path class="cls-2" d="M42.1,332.2a8.3,8.3,0,0,1,2.4,6.2,8.1,8.1,0,0,1-8.6,8.4,8.5,8.5,0,0,1-6.1-2.3,8.1,8.1,0,0,1-2.4-6.1,8.3,8.3,0,0,1,2.4-6.2,8.5,8.5,0,0,1,6.1-2.3A8.4,8.4,0,0,1,42.1,332.2Zm-9.8,2.2a5.1,5.1,0,0,0-1.4,3.9,5.3,5.3,0,0,0,1.4,4,4.7,4.7,0,0,0,3.7,1.5,4.6,4.6,0,0,0,3.6-1.5,5.7,5.7,0,0,0,1.4-4,5.3,5.3,0,0,0-1.4-3.9,4.6,4.6,0,0,0-3.6-1.5A4.7,4.7,0,0,0,32.3,334.4Z"/><path class="cls-2" d="M54.8,346.5H52l-6.9-16.4h3.7l4.6,11.2,4.7-11.2h3.7Z"/><path class="cls-2" d="M77.9,334.6a6.6,6.6,0,0,1-.8,3.2,13.1,13.1,0,0,1-2.2,2.9l-2.7,2.9H78v3H67.8v-2.7l4.6-5,1.7-2.1a6.5,6.5,0,0,0,.4-2.1,1.6,1.6,0,0,0-1.6-1.8c-1.1,0-1.7.8-1.7,2.3l-3.4-.2c.1-3.2,1.9-5.1,5.1-5.1S77.9,331.6,77.9,334.6Z"/><path class="cls-2" d="M90.2,332.1a9.7,9.7,0,0,1,1.7,6.2c0,2.7-.5,4.8-1.7,6.3a5.5,5.5,0,0,1-4.5,2.2,5.2,5.2,0,0,1-4.5-2.2c-1.2-1.5-1.7-3.6-1.7-6.3a9.7,9.7,0,0,1,1.7-6.2,5.7,5.7,0,0,1,9,0Zm-7.3,6.2c0,3.7,1,5.5,2.8,5.5s2.8-1.8,2.8-5.5-1-5.4-2.8-5.4S82.9,334.7,82.9,338.3Z"/><path class="cls-2" d="M99.7,346.5H96.3V334.4l-2.1,1.4-1.4-2.6,4.4-3.1h2.5v16.4Z"/><path class="cls-2" d="M112.1,331.4a5.6,5.6,0,0,1,1.6,4,6.5,6.5,0,0,1-1.2,3.6l-5.4,7.6h-4l4.1-5.7a6.1,6.1,0,0,1-3.7-1.7,5.8,5.8,0,0,1,.2-7.8,6.6,6.6,0,0,1,8.4,0Zm-2.3,5.8a2.6,2.6,0,0,0,.5-1.7,2.4,2.4,0,1,0-2.4,2.6A2.2,2.2,0,0,0,109.8,337.2Z"/><path class="cls-2" d="M126,342.3H115.5v-3H126Z"/><path class="cls-2" d="M142,346.5h-2.9l-7.2-10.1v10.1h-3.4V330.1h2.9l7.2,10.2V330.1H142Z"/><path class="cls-2" d="M159.2,332.2a7.9,7.9,0,0,1,2.4,6.2,8.1,8.1,0,0,1-2.4,6.1,8.1,8.1,0,0,1-6.1,2.3,8.5,8.5,0,0,1-6.1-2.3,8.1,8.1,0,0,1-2.4-6.1,8.3,8.3,0,0,1,2.4-6.2,8.5,8.5,0,0,1,6.1-2.3A8,8,0,0,1,159.2,332.2Zm-9.7,2.2a5.1,5.1,0,0,0-1.4,3.9,5.3,5.3,0,0,0,1.4,4,4.6,4.6,0,0,0,3.6,1.5,4.7,4.7,0,0,0,3.7-1.5,5.7,5.7,0,0,0,1.4-4,5.3,5.3,0,0,0-1.4-3.9,4.7,4.7,0,0,0-3.7-1.5A4.6,4.6,0,0,0,149.5,334.4Z"/><path class="cls-2" d="M172,346.5h-2.8l-6.9-16.4H166l4.6,11.2,4.6-11.2H179Z"/><path class="cls-2" d="M195.1,334.6a6.6,6.6,0,0,1-.8,3.2,17.1,17.1,0,0,1-2.2,2.9l-2.7,2.9h5.7v3H185v-2.7l4.5-5a11,11,0,0,0,1.7-2.1,4.6,4.6,0,0,0,.5-2.1,1.6,1.6,0,0,0-1.6-1.8c-1.1,0-1.7.8-1.7,2.3L185,335c.1-3.2,1.9-5.1,5.1-5.1S195.1,331.6,195.1,334.6Z"/><path class="cls-2" d="M207.4,332.1a10.4,10.4,0,0,1,1.7,6.2,10.5,10.5,0,0,1-1.7,6.3,5.8,5.8,0,0,1-9.1,0,10.5,10.5,0,0,1-1.7-6.3,10.4,10.4,0,0,1,1.7-6.2,5.5,5.5,0,0,1,4.6-2.2A5.2,5.2,0,0,1,207.4,332.1Zm-7.3,6.2c0,3.7.9,5.5,2.8,5.5s2.8-1.8,2.8-5.5-1-5.4-2.8-5.4S200.1,334.7,200.1,338.3Z"/><path class="cls-2" d="M221.1,334.6a6.6,6.6,0,0,1-.8,3.2,17.1,17.1,0,0,1-2.2,2.9l-2.7,2.9h5.8v3H211v-2.7l4.5-5a11,11,0,0,0,1.7-2.1,4.6,4.6,0,0,0,.5-2.1,1.6,1.6,0,0,0-1.6-1.8c-1.1,0-1.7.8-1.7,2.3L211,335c.1-3.2,1.9-5.1,5.1-5.1S221.1,331.6,221.1,334.6Z"/><path class="cls-2" d="M233.4,332.1a10.4,10.4,0,0,1,1.7,6.2,10.5,10.5,0,0,1-1.7,6.3,5.6,5.6,0,0,1-4.5,2.2,5.5,5.5,0,0,1-4.6-2.2,10.5,10.5,0,0,1-1.7-6.3,10.4,10.4,0,0,1,1.7-6.2,5.5,5.5,0,0,1,4.6-2.2A5.4,5.4,0,0,1,233.4,332.1Zm-7.3,6.2c0,3.7.9,5.5,2.8,5.5s2.7-1.8,2.7-5.5-.9-5.4-2.7-5.4S226.1,334.7,226.1,338.3Z"/><path class="cls-2" d="M115.2,367.5v9.1a6.4,6.4,0,0,1-1.7,4.7,7.6,7.6,0,0,1-9.6,0,6.1,6.1,0,0,1-1.8-4.7v-9.1h3.2v9c0,2.4,1.2,3.7,3.4,3.7s3.3-1.3,3.3-3.7v-9Z"/><path class="cls-2" d="M127.2,368.5a4.8,4.8,0,0,1,1.6,3.5h-3.2a2.2,2.2,0,0,0-2.4-2.1c-1.5,0-2.3.7-2.3,1.8a1.5,1.5,0,0,0,.6,1.3,10.2,10.2,0,0,0,2.4.7,11.9,11.9,0,0,1,3.9,1.7,3.2,3.2,0,0,1,1.3,2.9,4.1,4.1,0,0,1-1.6,3.5,6.6,6.6,0,0,1-4.1,1.1,7,7,0,0,1-4.4-1.3,4.2,4.2,0,0,1-1.7-3.6h3.2a2.7,2.7,0,0,0,2.9,2.3c1.7,0,2.5-.6,2.5-1.8s-.9-1.5-3.2-2.1l-2-.6-1.5-.8a3.3,3.3,0,0,1-1.6-3.1,4.3,4.3,0,0,1,1.5-3.3,5.6,5.6,0,0,1,4-1.4A7.4,7.4,0,0,1,127.2,368.5Z"/><path class="cls-2" d="M145.4,382.8h-3.5l-1.2-2.9h-6.4l-1.2,2.9h-3.5l6.6-15.3h2.6Zm-10-5.5h4.2l-2.1-4.9Z"/><rect class="cls-3" width="248" height="248"/><path class="cls-2" d="M61.7,38.2v3.4c0,6.2-2,11.2-6,15.1a21.5,21.5,0,0,1-15.4,5.8,22.7,22.7,0,0,1-16.7-6.6,21.7,21.7,0,0,1-6.6-16A22.4,22.4,0,0,1,39.8,17.1a21.9,21.9,0,0,1,19,10.2l-7.4,4.2c-2-3.5-6.5-6-11.7-6a13.6,13.6,0,0,0-10.2,4,13.9,13.9,0,0,0-4,10.3,14.2,14.2,0,0,0,4,10.2c2.8,2.7,6.4,4,10.9,4C47,54,51.5,50.9,53,45.7H39.9V38.1H61.7Z"/><path class="cls-2" d="M74.6,35.9c1.4-4,4.9-6,8.9-6v8.9a8.5,8.5,0,0,0-6.2,1.5c-1.8,1.3-2.7,3.4-2.7,6.4V61.6H66.9V30.5h7.7Z"/><path class="cls-2" d="M96.4,49.4c1.1,3.9,4,5.8,8.8,5.8a8.3,8.3,0,0,0,7-3.1l6.4,3.7c-3,4.4-7.6,6.7-13.5,6.7s-9.3-1.6-12.4-4.7a15.8,15.8,0,0,1-4.6-11.7,15.8,15.8,0,0,1,4.6-11.7c3-3.2,7-4.7,11.8-4.7a14.4,14.4,0,0,1,11.2,4.7,16.3,16.3,0,0,1,4.5,11.7,19.3,19.3,0,0,1-.3,3.3Zm15.7-6.2a7.4,7.4,0,0,0-7.7-6.3c-4.3,0-7.2,2.3-8.1,6.3Z"/><path class="cls-2" d="M149.1,30.5h8V61.6h-8V57.9c-2.4,3.1-5.8,4.6-10.2,4.6a14.5,14.5,0,0,1-10.7-4.7,16.8,16.8,0,0,1-4.4-11.7,16.8,16.8,0,0,1,4.4-11.7,14.5,14.5,0,0,1,10.7-4.7q6.6,0,10.2,4.5Zm-8.7,24.3a8.4,8.4,0,0,0,8.7-8.7,8.5,8.5,0,0,0-8.7-8.8,7.9,7.9,0,0,0-6.1,2.5,8.2,8.2,0,0,0-2.5,6.3,8.5,8.5,0,0,0,2.5,6.3A8.2,8.2,0,0,0,140.4,54.8Z"/><path class="cls-2" d="M183.4,38.2h-7V51.1c0,3.4,2.4,3.5,7,3.2v7.3c-11,1.2-15-1.9-15-10.5V38.2H163V30.5h5.4V24.2l8-2.4v8.7h7.1v7.7Z"/><path class="cls-2" d="M38.9,72.8A14.5,14.5,0,0,1,49.5,77a13.9,13.9,0,0,1,4.3,10.4,13.7,13.7,0,0,1-4.3,10.3A14.6,14.6,0,0,1,38.9,102H31.3v14.3H22.7V72.8Zm0,21.2a6.6,6.6,0,0,0,0-13.2H31.3V93.9h7.6Z"/><path class="cls-2" d="M59.6,116.3V73.2h8.1v43.1Z"/><path class="cls-2" d="M99.9,85.2h8v31.1h-8v-3.7c-2.4,3.1-5.8,4.5-10.2,4.5a13.8,13.8,0,0,1-10.6-4.7,17.3,17.3,0,0,1,0-23.3,14.1,14.1,0,0,1,10.6-4.7c4.4,0,7.8,1.4,10.2,4.5Zm-8.7,24.3a8.4,8.4,0,0,0,6.2-2.4,8.6,8.6,0,0,0,2.5-6.4,8.4,8.4,0,0,0-2.5-6.3,8.7,8.7,0,0,0-14.8,6.3,9,9,0,0,0,2.5,6.4A8.4,8.4,0,0,0,91.2,109.5Z"/><path class="cls-2" d="M119.5,112.4a16.8,16.8,0,0,1,0-23.3,15.7,15.7,0,0,1,11.7-4.7,15.3,15.3,0,0,1,13.9,8l-6.9,4a7.7,7.7,0,0,0-7.1-4.1,8.1,8.1,0,0,0-8.3,8.5,8.9,8.9,0,0,0,2.3,6.1,8.5,8.5,0,0,0,6,2.3c3.3,0,6-1.5,7.2-4l7,3.9a16.5,16.5,0,0,1-25.8,3.3Z"/><path class="cls-2" d="M158.1,104c1.1,3.9,4,5.9,8.8,5.9a8.3,8.3,0,0,0,6.9-3.1l6.5,3.7c-3,4.4-7.6,6.7-13.5,6.7s-9.3-1.6-12.4-4.7a15.8,15.8,0,0,1-4.6-11.7,16.1,16.1,0,0,1,4.5-11.7,15.8,15.8,0,0,1,11.9-4.7,14.4,14.4,0,0,1,11.2,4.7,16.3,16.3,0,0,1,4.5,11.7,20.2,20.2,0,0,1-.3,3.3H158.1Zm15.7-6.2a7.5,7.5,0,0,0-7.7-6.3c-4.3,0-7.2,2.3-8.2,6.3Z"/><path class="cls-2" d="M49,129.6v7.8H37.3V171H28.7V137.4H17v-7.8Z"/><path class="cls-2" d="M62.4,171.8a16.4,16.4,0,1,1,0-32.8,16.4,16.4,0,1,1,0,32.8Zm0-7.8a8.1,8.1,0,0,0,6-2.4,8.4,8.4,0,0,0,2.4-6.2,8.6,8.6,0,0,0-2.4-6.2,8.1,8.1,0,0,0-6-2.4,8.5,8.5,0,0,0-6.1,2.4,8.8,8.8,0,0,0-2.3,6.2,9,9,0,0,0,2.3,6.2A8.5,8.5,0,0,0,62.4,164Z"/><path class="cls-2" d="M30.3,228.2,18.2,184.6h9l8.3,32.3,9.1-32.3H52l9.1,32.3,8.3-32.3h9L66.2,228.2H56.5l-8.2-28.8-8.2,28.8Z"/><path class="cls-2" d="M94.1,229a16.1,16.1,0,0,1-16.4-16.4A15.6,15.6,0,0,1,82.4,201a16.5,16.5,0,1,1,11.7,28Zm0-7.8a8.1,8.1,0,0,0,6-2.4,8.4,8.4,0,0,0,2.4-6.2,8.2,8.2,0,0,0-2.4-6.1,7.9,7.9,0,0,0-6-2.5,8.2,8.2,0,0,0-6.1,2.5,8.5,8.5,0,0,0-2.3,6.1,8.8,8.8,0,0,0,2.3,6.2A8.5,8.5,0,0,0,94.1,221.2Z"/><path class="cls-2" d="M124.2,202.4c1.5-3.9,5.3-6,9.5-6v9a9.6,9.6,0,0,0-6.6,1.5c-1.9,1.3-2.9,3.4-2.9,6.4v14.9h-7.9V197.1h8v5.3Z"/><path class="cls-2" d="M168.3,228.2H159l-11.3-14.1v14.1h-8.1V184.6h8.1v26.1l10.6-13.6h9.6l-12.5,15.3Z"/><path class="cls-2" d="M171.2,222.5a7.1,7.1,0,0,1,14.1,0,7.1,7.1,0,0,1-14.1,0Zm12.8,0a5.8,5.8,0,1,0-11.5,0,5.8,5.8,0,1,0,11.5,0Zm-8.2-3.5h2.5c1.6,0,2.6.6,2.6,2.1h0a1.8,1.8,0,0,1-1.4,1.9l1.9,2.9h-1.6l-1.7-2.7h-.7v2.7h-1.6Zm2.5,3.2c.8,0,1.2-.4,1.2-1h0c0-.7-.5-1-1.2-1h-.9v2h.9Z"/><path class="cls-2" d="M49,274.5A15.3,15.3,0,0,1,55,285l-8.1.7c-1.1-5.2-4.8-8.2-10-8.2a10.2,10.2,0,0,0-8.1,3.5c-2,2.2-2.9,5.3-2.9,9.1s1,7,3,9.2a10.6,10.6,0,0,0,8,3.3c5.3,0,9-2.8,10-8l8.2.7a15.8,15.8,0,0,1-6,10.4,18.6,18.6,0,0,1-11.9,3.8c-5.7,0-10.3-1.7-13.9-5.2s-5.4-8.3-5.4-14.2,1.8-10.8,5.4-14.2a19,19,0,0,1,13.8-5.3A18.7,18.7,0,0,1,49,274.5Z"/><path class="cls-2" d="M83.3,298.3H65.4a5.1,5.1,0,0,0,5.4,5.3c2.7,0,4.3-1,4.8-2.9l7.5.3a9.2,9.2,0,0,1-4.1,6.1,13,13,0,0,1-7.9,2.4c-4.1,0-7.4-1.2-9.8-3.7s-3.7-5.8-3.7-9.9,1.2-7.4,3.7-9.9a13,13,0,0,1,9.6-3.7,12.1,12.1,0,0,1,9,3.5c2.3,2.3,3.4,5.5,3.4,9.5Zm-17.9-4.9H75.9c-.2-3.3-1.9-5.3-5.1-5.3S65.6,290.1,65.4,293.4Z"/><path class="cls-2" d="M101.2,289.7c-4.2,0-6.9,2.4-6.9,6V309H86.9V282.8h7.2v3c1.3-2.1,3.7-3.2,7.1-3.2v7.1Z"/><path class="cls-2" d="M116.4,289.2v9.7a3.7,3.7,0,0,0,4,4l2.2-.3v6.6l-4,.3c-6,0-9.6-2.9-9.5-8.8V289.2h-4.7v-6.3h4.8v-8.7h7.3v8.7h6.1v6.3Z"/><path class="cls-2" d="M134.7,274.3a4.4,4.4,0,0,1-1.3,3.1,4.5,4.5,0,0,1-6.3,0c-2.8-2.5-.6-7.7,3.1-7.5A4.4,4.4,0,0,1,134.7,274.3Zm-.8,34.7h-7.4V282.8h7.4Z"/><path class="cls-2" d="M154.8,269.6v6.3H153a4.2,4.2,0,0,0-4.4,4.2v2.9h6.1v6.3h-6.1V309h-7.3V289.2h-4.7v-6.3h4.7v-2.7a10.2,10.2,0,0,1,3-7.8,10.6,10.6,0,0,1,7.9-3Zm12.5,4.7a4.4,4.4,0,0,1-1.3,3.1,4.5,4.5,0,0,1-6.3,0c-2.8-2.5-.5-7.7,3.1-7.5A4.4,4.4,0,0,1,167.3,274.3Zm-.8,34.7h-7.3V282.8h7.3Z"/><path class="cls-2" d="M195.9,298.3h-18c.2,3.2,2.2,5.3,5.5,5.3s4.2-1,4.8-2.9l7.4.3a8.8,8.8,0,0,1-4.1,6.1,13,13,0,0,1-7.9,2.4,13.3,13.3,0,0,1-9.8-3.7c-2.5-2.5-3.7-5.8-3.7-9.9s1.2-7.4,3.7-9.9a13.4,13.4,0,0,1,9.6-3.7,12.3,12.3,0,0,1,9.1,3.5c2.3,2.3,3.4,5.5,3.4,9.5Zm-18-4.9h10.5c-.1-3.3-1.8-5.3-5.1-5.3S178.2,290.1,177.9,293.4Z"/><path class="cls-2" d="M225.3,309h-6.9v-2.7c-1.4,1.9-4.3,3.2-7.8,3.2a11.8,11.8,0,0,1-9-3.7c-2.4-2.5-3.5-5.8-3.5-9.9s1.1-7.4,3.5-9.8a11.8,11.8,0,0,1,9-3.8c3.3,0,5.8.9,7.4,2.8V269.7h7.3Zm-19.8-13.1c0,4.6,2.5,7.2,6.4,7.2s6.1-2.4,6.1-6.6v-1.2c0-4.1-2.5-6.6-6.1-6.6S205.5,291.3,205.5,295.9Z"/><path class="cls-1" d="M235.4,376.6h-2.5V382h-2.3v-5.4h-2.4v-2.2h7.2Zm10.2,5.4h-2.3v-3.1l-1.8,3.1h-1l-1.7-3.1V382h-2.3v-7.6h1.9L241,379l2.6-4.6h1.9V382Z"/></svg>