<svg id="Layer_1" data-name="Layer 1" xmlns="http://www.w3.org/2000/svg" viewBox="0 0 259.18 42"><defs><style>.cls-1{fill:#fff;}.cls-2{fill:#9e1f63;}</style></defs><title>Artboard 1</title><path class="cls-1" d="M50.1,29.82c-3,.13-5.17-1.44-5.17-4.75V14.25H43.18V12.81h1.75V6.37h1.73v6.44h3.46v1.44H46.66V25.07c0,2,1.28,3.22,3.46,3.19Z"/><path class="cls-1" d="M56.47,6.39v7.17a9.91,9.91,0,0,1,4.38-1c4.55-.07,8.1,2.74,8.1,7.64v9.64H67.2V20.19c0-3.65-2.84-6-6.36-6a11.3,11.3,0,0,0-4.38.87V29.81H54.72V6.39Z"/><path class="cls-1" d="M75.22,12.85l.27,2.21c2-3.21,6-2.58,8-1.74l-.7,1.44c-3.19-1.54-7.34.2-7.24,4.18V29.83h-1.7v-17Z"/><path class="cls-1" d="M88.72,9H86.88V6.42h1.84ZM86.91,29.83v-17h1.78v17Z"/><path class="cls-1" d="M99.14,28.42h.13l5.26-15.68h1.84l-5.92,17.11H98L92,12.74h1.8Z"/><path class="cls-1" d="M123.68,21.58v.07a6.54,6.54,0,0,1-2.11,4.83,7,7,0,0,1-5,2,6.83,6.83,0,0,1-5.57-2.7l12.93-9,0-.06a8.63,8.63,0,0,0-7.34-4,8.17,8.17,0,0,0-6.16,2.53A8.61,8.61,0,0,0,108,21.34a8.3,8.3,0,0,0,2.51,6.09,8.68,8.68,0,0,0,6.33,2.47,8.17,8.17,0,0,0,5.94-2.44,7.93,7.93,0,0,0,2.45-5.8v-.07Zm-1.93-5.09-11.54,8a7.16,7.16,0,0,1-.68-3.12,7.33,7.33,0,0,1,2-5.14,6.56,6.56,0,0,1,5-2.17A6.34,6.34,0,0,1,121.75,16.49Z"/><path class="cls-1" d="M21.24,13.32a20.55,20.55,0,0,1,7-1.15c4.83,0,8.78,2.11,8.78,7.76v9.9H33.39v-9.9c0-3.47-2.63-4.56-5.45-4.56a12.41,12.41,0,0,0-3,.51V29.83H21.24Z"/><path class="cls-1" d="M36.25,32.46l1.33,1.45a20.61,20.61,0,0,0,3.91-8.28l-1.75-.16A16.6,16.6,0,0,1,36.25,32.46Z"/><path class="cls-1" d="M40,24.46h1.78A20.78,20.78,0,0,0,42,20.14l-1.83.48A16.43,16.43,0,0,1,40,24.46Z"/><path class="cls-1" d="M40.07,19.44l1.82-.64a21.38,21.38,0,0,0-1.29-5.4l-1.82,1.37A17.24,17.24,0,0,1,40.07,19.44Z"/><path class="cls-1" d="M38.27,13.73l1.78-1.59A20.83,20.83,0,0,0,38.27,9L36.6,11.12A17.79,17.79,0,0,1,38.27,13.73Z"/><path class="cls-1" d="M35.82,10.23c.53-.8,1-1.59,1.59-2.35a20.82,20.82,0,0,0-3-3c-.42,1-.85,2-1.28,3A16.9,16.9,0,0,1,35.82,10.23Z"/><path class="cls-1" d="M30.74,6.39a15.49,15.49,0,0,1,1.54.86l1.17-3.16a21.11,21.11,0,0,0-3.18-1.94L30,2l-.67,3.74C29.81,6,30.28,6.16,30.74,6.39Z"/><path class="cls-2" d="M28.35,5.42l.46-3.91A20.69,20.69,0,0,0,24.38.27l.32,4.44A16.84,16.84,0,0,1,28.35,5.42Z"/><path class="cls-2" d="M23.56,4.65C23.41,3.12,23.25,1.59,23,.1a20.54,20.54,0,0,0-5.37.17L19.41,5.1A17,17,0,0,1,23.56,4.65Z"/><path class="cls-2" d="M18.17,5.44Q17.13,3,16.12.58a21.21,21.21,0,0,0-4.22,1.5L15,6.81A17.35,17.35,0,0,1,18.17,5.44Z"/><path class="cls-2" d="M13.82,7.54,10.4,2.88a20.78,20.78,0,0,0-5,4l4.78,3.88A16.65,16.65,0,0,1,13.82,7.54Z"/><path class="cls-1" d="M32.64,35.69l.91,2.17a20.88,20.88,0,0,0,3.28-3l-1.26-1.6A16.71,16.71,0,0,1,32.64,35.69Z"/><path class="cls-1" d="M27.13,38.07l0,3a20.58,20.58,0,0,0,5.21-2.42l-.79-2.34A17.11,17.11,0,0,1,27.13,38.07Z"/><path class="cls-1" d="M22.79,38.51,21.85,42a20.45,20.45,0,0,0,3.89-.53c.07-1.06.15-2.12.22-3.18A17.73,17.73,0,0,1,22.79,38.51Z"/><path class="cls-1" d="M18.31,37.77l-2.06,3.7A21.19,21.19,0,0,0,20.3,42c.4-1.15.84-2.36,1.3-3.58A16.67,16.67,0,0,1,18.31,37.77Z"/><path class="cls-1" d="M15.8,36.78q-.65-.33-1.26-.69c-1.08,1.19-2.15,2.41-3.19,3.58.13.07.26.14.4.2a19.75,19.75,0,0,0,3,1.19l2.47-3.66A15.59,15.59,0,0,1,15.8,36.78Z"/><path class="cls-1" d="M10.8,33,6.3,36A21.26,21.26,0,0,0,10,38.91l3.53-3.46A16.23,16.23,0,0,1,10.8,33Z"/><path class="cls-2" d="M8,29c-1.86.67-3.71,1.34-5.54,2a20.56,20.56,0,0,0,2.79,4c1.9-1.1,3.4-2,4.72-2.82A17.22,17.22,0,0,1,8,29Z"/><path class="cls-2" d="M6.61,24.56.4,25.1a20.85,20.85,0,0,0,1.4,4.42q2.87-.81,5.76-1.66A16.59,16.59,0,0,1,6.61,24.56Z"/><path class="cls-2" d="M6.69,18.17.45,16.68a20.89,20.89,0,0,0-.31,6.74l6.29-.15A16.49,16.49,0,0,1,6.69,18.17Z"/><path class="cls-2" d="M8.08,14.11A17.25,17.25,0,0,1,9.34,12L4.26,8.32A21,21,0,0,0,.92,14.86l6.14,1.86A17.22,17.22,0,0,1,8.08,14.11Z"/><path class="cls-1" d="M147.8,29.89l-.52-1.68a5.56,5.56,0,0,1-4.66,1.94c-8.89,0-8.82-11.29,1.2-11.29a6.41,6.41,0,0,1,3.29,1c0-2.94-1.84-3.88-3.91-3.85a8.61,8.61,0,0,0-4.52,1.33l-1.37-2.1c4.59-3.79,13.29-2.82,13.29,4.72v10Zm-.65-4.38V22.73a5.6,5.6,0,0,0-3.3-.94c-2.68,0-4.37,1.19-4.37,2.61s1.26,2.5,4,2.5a5.22,5.22,0,0,0,3.69-1.38Z"/><path class="cls-1" d="M154.1,14.2a19.28,19.28,0,0,1,6.69-1.09c4.59,0,8.36,2,8.36,7.37v9.41h-3.49V20.48c0-3.3-2.5-4.34-5.18-4.34a11.66,11.66,0,0,0-2.81.49V29.89H154.1Z"/><path class="cls-1" d="M183.43,29.89l-.52-1.68a5.54,5.54,0,0,1-4.65,1.94c-8.89,0-8.83-11.29,1.19-11.29a6.41,6.41,0,0,1,3.3,1c0-2.94-1.84-3.88-3.91-3.85a8.7,8.7,0,0,0-4.52,1.33l-1.39-2.1c4.59-3.79,13.29-2.82,13.29,4.72v10Zm-.64-4.38V22.73a5.76,5.76,0,0,0-3.3-.93c-2.68,0-4.37,1.2-4.37,2.62s1.26,2.49,4,2.49a5.3,5.3,0,0,0,3.69-1.39Z"/><path class="cls-1" d="M195.36,29.92c-3.88.4-6-1.29-6-5.08V7.25h3.53V24.84c0,1.33.45,2.07,2.42,1.91Z"/><path class="cls-1" d="M197.56,33.18c2,.23,2.75-.54,3.08-1.38l1-2.39L195,13.49h3.78l4.63,11.61,4.2-11.61h3.78L203.84,33c-1.17,2.88-3.66,3.33-6.28,3Z"/><path class="cls-1" d="M228.85,30.13h-3.59V13.34h3.59ZM225.22,7h3.63v4h-3.67Z"/><path class="cls-1" d="M221.55,30.08c-3.89.4-6.65-1.19-6.65-5.2V16.46h-2V13.37h2V7h3.55v6.37h3.1v3.09h-3.1v8.33c0,1.34,1.09,2.23,3.1,2.07Z"/><path class="cls-1" d="M259.18,25.39c0,3.58-3.32,4.85-5.87,4.85a6.6,6.6,0,0,1-5.57-2.92l2.11-2.05a4.81,4.81,0,0,0,3.35,1.92c1.2.06,2.67-.37,2.67-1.71,0-1.52-1.61-2-2.67-2.17-2.6-.43-5-1.71-5-4.69s2.79-4.81,5.72-4.81a6.55,6.55,0,0,1,4.9,2.08L256.93,18a4.64,4.64,0,0,0-3-1.19c-1,0-2.52.43-2.49,1.86s1.5,1.55,2.49,1.77c2.67.5,5.21,1.89,5.21,5"/><path class="cls-1" d="M243.94,18.36a5.87,5.87,0,0,0-4.17-1.74c-2.52,0-5,1.81-5,5.37,0,2.81,1.75,5.26,5,5.26a6.72,6.72,0,0,0,4.23-1.87l2,2.3a8.88,8.88,0,0,1-6.24,2.78c-5.57,0-8.51-4.07-8.51-8.53a8.24,8.24,0,0,1,8.51-8.55A8.37,8.37,0,0,1,245.92,16Z"/><path class="cls-1" d="M126,14.61a1.56,1.56,0,0,1,.2-.82,1.53,1.53,0,0,1,1.36-.81,1.5,1.5,0,0,1,.77.22,1.61,1.61,0,0,1,.57.59,1.72,1.72,0,0,1,0,1.62,1.53,1.53,0,0,1-2.15.6,1.6,1.6,0,0,1-.75-1.4Zm.25,0a1.29,1.29,0,0,0,.17.69,1.33,1.33,0,0,0,.47.5,1.26,1.26,0,0,0,1.3,0,1.35,1.35,0,0,0,.47-.51,1.45,1.45,0,0,0,0-1.37,1.33,1.33,0,0,0-.47-.5,1.31,1.31,0,0,0-1.3,0,1.41,1.41,0,0,0-.64,1.19Zm1,.16v.75h-.31V13.66h.6a.85.85,0,0,1,.52.14.49.49,0,0,1,.18.4.43.43,0,0,1-.28.4.42.42,0,0,1,.27.44v.14a.84.84,0,0,0,0,.27v.07H128a.86.86,0,0,1,0-.28,1,1,0,0,0,0-.24c0-.14-.11-.21-.28-.21Zm0-.28h.34a.43.43,0,0,0,.25-.07.26.26,0,0,0,.1-.19.28.28,0,0,0-.09-.22.45.45,0,0,0-.3-.07h-.3Z"/></svg>